<svg width="500" height="250" viewBox="0 0 500 250" fill="none" xmlns="http://www.w3.org/2000/svg">
<path d="M83.3333 0H0V220H83.3333V0Z" fill="#EDE0D4"/>
<path d="M166.667 0H83.3333V220H166.667V0Z" fill="#E6CCB2"/>
<path d="M250 0H166.667V220H250V0Z" fill="#DDB892"/>
<path d="M333.333 0H250V220H333.333V0Z" fill="#B08968"/>
<path d="M416.667 0H333.333V220H416.667V0Z" fill="#7F5539"/>
<path d="M500 0H416.667V220H500V0Z" fill="#9C6644"/>
<path d="M10.5284 235V230.636H13.1619V231.105H11.0568V232.58H13.0256V233.048H11.0568V234.531H13.196V235H10.5284ZM14.4212 231.727L15.2053 233.065L15.9893 231.727H16.5689L15.5121 233.364L16.5689 235H15.9893L15.2053 233.73L14.4212 235H13.8416L14.8814 233.364L13.8416 231.727H14.4212ZM17.2864 236.227V231.727H17.7722V232.247H17.8319C17.8688 232.19 17.9199 232.118 17.9853 232.03C18.052 231.94 18.1472 231.861 18.2708 231.791C18.3958 231.72 18.5648 231.685 18.7779 231.685C19.0534 231.685 19.2963 231.754 19.5066 231.891C19.7168 232.029 19.8809 232.224 19.9988 232.477C20.1167 232.73 20.1756 233.028 20.1756 233.372C20.1756 233.719 20.1167 234.019 19.9988 234.273C19.8809 234.526 19.7175 234.722 19.5087 234.862C19.2999 234.999 19.0591 235.068 18.7864 235.068C18.5762 235.068 18.4078 235.033 18.2814 234.964C18.155 234.893 18.0577 234.812 17.9895 234.723C17.9213 234.632 17.8688 234.557 17.8319 234.497H17.7892V236.227H17.2864ZM17.7807 233.364C17.7807 233.611 17.8169 233.829 17.8894 234.018C17.9618 234.205 18.0676 234.352 18.2069 234.459C18.3461 234.564 18.5165 234.616 18.7182 234.616C18.9284 234.616 19.1039 234.561 19.2445 234.45C19.3865 234.338 19.4931 234.187 19.5641 233.999C19.6365 233.808 19.6728 233.597 19.6728 233.364C19.6728 233.134 19.6373 232.926 19.5662 232.741C19.4966 232.555 19.3908 232.408 19.2488 232.3C19.1081 232.191 18.9313 232.136 18.7182 232.136C18.5137 232.136 18.3418 232.188 18.2026 232.292C18.0634 232.394 17.9583 232.538 17.8873 232.722C17.8162 232.906 17.7807 233.119 17.7807 233.364ZM22.2722 235.068C21.9767 235.068 21.7175 234.998 21.4945 234.857C21.2729 234.717 21.0996 234.52 20.9746 234.267C20.851 234.014 20.7892 233.719 20.7892 233.381C20.7892 233.04 20.851 232.742 20.9746 232.488C21.0996 232.234 21.2729 232.036 21.4945 231.896C21.7175 231.755 21.9767 231.685 22.2722 231.685C22.5676 231.685 22.8262 231.755 23.0478 231.896C23.2708 232.036 23.4441 232.234 23.5676 232.488C23.6926 232.742 23.7551 233.04 23.7551 233.381C23.7551 233.719 23.6926 234.014 23.5676 234.267C23.4441 234.52 23.2708 234.717 23.0478 234.857C22.8262 234.998 22.5676 235.068 22.2722 235.068ZM22.2722 234.616C22.4966 234.616 22.6813 234.559 22.8262 234.444C22.9711 234.329 23.0783 234.178 23.1479 233.99C23.2175 233.803 23.2523 233.599 23.2523 233.381C23.2523 233.162 23.2175 232.958 23.1479 232.769C23.0783 232.58 22.9711 232.428 22.8262 232.311C22.6813 232.195 22.4966 232.136 22.2722 232.136C22.0478 232.136 21.8631 232.195 21.7182 232.311C21.5733 232.428 21.4661 232.58 21.3965 232.769C21.3269 232.958 21.2921 233.162 21.2921 233.381C21.2921 233.599 21.3269 233.803 21.3965 233.99C21.4661 234.178 21.5733 234.329 21.7182 234.444C21.8631 234.559 22.0478 234.616 22.2722 234.616ZM24.5227 235V231.727H25.0085V232.222H25.0426C25.1023 232.06 25.2102 231.928 25.3665 231.827C25.5227 231.727 25.6989 231.676 25.8949 231.676C25.9318 231.676 25.978 231.677 26.0334 231.678C26.0888 231.68 26.1307 231.682 26.1591 231.685V232.196C26.142 232.192 26.103 232.185 26.0419 232.177C25.9822 232.167 25.919 232.162 25.8523 232.162C25.6932 232.162 25.5511 232.195 25.4261 232.262C25.3026 232.327 25.2045 232.418 25.1321 232.535C25.0611 232.65 25.0256 232.781 25.0256 232.929V235H24.5227ZM28.3835 231.727V232.153H26.6875V231.727H28.3835ZM27.1818 230.943H27.6847V234.062C27.6847 234.205 27.7053 234.311 27.7464 234.382C27.7891 234.452 27.843 234.499 27.9084 234.523C27.9751 234.545 28.0455 234.557 28.1193 234.557C28.1747 234.557 28.2202 234.554 28.2557 234.548C28.2912 234.541 28.3196 234.536 28.3409 234.531L28.4432 234.983C28.4091 234.996 28.3615 235.009 28.3004 235.021C28.2393 235.036 28.1619 235.043 28.0682 235.043C27.9261 235.043 27.7869 235.012 27.6506 234.951C27.5156 234.89 27.4034 234.797 27.3139 234.672C27.2259 234.547 27.1818 234.389 27.1818 234.199V230.943ZM30.4769 235.068C30.1616 235.068 29.8896 234.999 29.6609 234.859C29.4336 234.719 29.2582 234.523 29.1346 234.271C29.0124 234.018 28.9513 233.724 28.9513 233.389C28.9513 233.054 29.0124 232.759 29.1346 232.503C29.2582 232.246 29.43 232.045 29.6502 231.902C29.8718 231.757 30.1303 231.685 30.4258 231.685C30.5962 231.685 30.7646 231.713 30.9308 231.77C31.0969 231.827 31.2482 231.919 31.3846 232.047C31.521 232.173 31.6296 232.341 31.7106 232.55C31.7915 232.759 31.832 233.016 31.832 233.321V233.534H29.3093V233.099H31.3207C31.3207 232.915 31.2837 232.75 31.2099 232.605C31.1374 232.46 31.0337 232.346 30.8988 232.262C30.7653 232.178 30.6076 232.136 30.4258 232.136C30.2255 232.136 30.0522 232.186 29.9059 232.286C29.761 232.384 29.6495 232.511 29.5714 232.669C29.4933 232.827 29.4542 232.996 29.4542 233.176V233.466C29.4542 233.713 29.4968 233.923 29.582 234.094C29.6687 234.265 29.7887 234.395 29.9421 234.484C30.0955 234.572 30.2738 234.616 30.4769 234.616C30.609 234.616 30.7283 234.598 30.8349 234.561C30.9428 234.523 31.0359 234.466 31.114 234.391C31.1921 234.314 31.2525 234.219 31.2951 234.105L31.7809 234.241C31.7298 234.406 31.6438 234.551 31.5231 234.676C31.4023 234.8 31.2532 234.896 31.0756 234.966C30.8981 235.034 30.6985 235.068 30.4769 235.068ZM33.8327 235.068C33.56 235.068 33.3192 234.999 33.1104 234.862C32.9016 234.722 32.7383 234.526 32.6204 234.273C32.5025 234.019 32.4435 233.719 32.4435 233.372C32.4435 233.028 32.5025 232.73 32.6204 232.477C32.7383 232.224 32.9023 232.029 33.1126 231.891C33.3228 231.754 33.5657 231.685 33.8413 231.685C34.0543 231.685 34.2227 231.72 34.3462 231.791C34.4712 231.861 34.5664 231.94 34.6317 232.03C34.6985 232.118 34.7504 232.19 34.7873 232.247H34.8299V230.636H35.3327V235H34.8469V234.497H34.7873C34.7504 234.557 34.6978 234.632 34.6296 234.723C34.5614 234.812 34.4641 234.893 34.3377 234.964C34.2113 235.033 34.043 235.068 33.8327 235.068ZM33.9009 234.616C34.1026 234.616 34.2731 234.564 34.4123 234.459C34.5515 234.352 34.6573 234.205 34.7298 234.018C34.8022 233.829 34.8384 233.611 34.8384 233.364C34.8384 233.119 34.8029 232.906 34.7319 232.722C34.6609 232.538 34.5558 232.394 34.4165 232.292C34.2773 232.188 34.1055 232.136 33.9009 232.136C33.6879 232.136 33.5103 232.191 33.3683 232.3C33.2276 232.408 33.1218 232.555 33.0508 232.741C32.9812 232.926 32.9464 233.134 32.9464 233.364C32.9464 233.597 32.9819 233.808 33.0529 233.999C33.1254 234.187 33.2319 234.338 33.3725 234.45C33.5146 234.561 33.6907 234.616 33.9009 234.616ZM39.4684 231.727V232.153H37.7042V231.727H39.4684ZM38.2326 235V231.276C38.2326 231.088 38.2766 230.932 38.3647 230.807C38.4528 230.682 38.5671 230.588 38.7077 230.526C38.8484 230.463 38.9968 230.432 39.1531 230.432C39.2766 230.432 39.3775 230.442 39.4556 230.462C39.5337 230.482 39.592 230.5 39.6303 230.517L39.4854 230.952C39.4599 230.943 39.4244 230.933 39.3789 230.92C39.3349 230.907 39.2766 230.901 39.2042 230.901C39.038 230.901 38.918 230.942 38.8441 231.026C38.7717 231.11 38.7354 231.233 38.7354 231.395V235H38.2326ZM40.1731 235V231.727H40.6589V232.222H40.693C40.7527 232.06 40.8606 231.928 41.0169 231.827C41.1731 231.727 41.3493 231.676 41.5453 231.676C41.5822 231.676 41.6284 231.677 41.6838 231.678C41.7392 231.68 41.7811 231.682 41.8095 231.685V232.196C41.7924 232.192 41.7534 232.185 41.6923 232.177C41.6326 232.167 41.5694 232.162 41.5027 232.162C41.3436 232.162 41.2015 232.195 41.0765 232.262C40.9529 232.327 40.8549 232.418 40.7825 232.535C40.7115 232.65 40.676 232.781 40.676 232.929V235H40.1731ZM43.6355 235.068C43.34 235.068 43.0808 234.998 42.8578 234.857C42.6362 234.717 42.4629 234.52 42.3379 234.267C42.2143 234.014 42.1525 233.719 42.1525 233.381C42.1525 233.04 42.2143 232.742 42.3379 232.488C42.4629 232.234 42.6362 232.036 42.8578 231.896C43.0808 231.755 43.34 231.685 43.6355 231.685C43.9309 231.685 44.1895 231.755 44.411 231.896C44.6341 232.036 44.8074 232.234 44.9309 232.488C45.0559 232.742 45.1184 233.04 45.1184 233.381C45.1184 233.719 45.0559 234.014 44.9309 234.267C44.8074 234.52 44.6341 234.717 44.411 234.857C44.1895 234.998 43.9309 235.068 43.6355 235.068ZM43.6355 234.616C43.8599 234.616 44.0446 234.559 44.1895 234.444C44.3343 234.329 44.4416 234.178 44.5112 233.99C44.5808 233.803 44.6156 233.599 44.6156 233.381C44.6156 233.162 44.5808 232.958 44.5112 232.769C44.4416 232.58 44.3343 232.428 44.1895 232.311C44.0446 232.195 43.8599 232.136 43.6355 232.136C43.411 232.136 43.2264 232.195 43.0815 232.311C42.9366 232.428 42.8294 232.58 42.7598 232.769C42.6902 232.958 42.6554 233.162 42.6554 233.381C42.6554 233.599 42.6902 233.803 42.7598 233.99C42.8294 234.178 42.9366 234.329 43.0815 234.444C43.2264 234.559 43.411 234.616 43.6355 234.616ZM45.886 235V231.727H46.3718V232.239H46.4144C46.4826 232.064 46.5927 231.928 46.7447 231.832C46.8967 231.734 47.0792 231.685 47.2923 231.685C47.5082 231.685 47.6879 231.734 47.8313 231.832C47.9762 231.928 48.0891 232.064 48.1701 232.239H48.2042C48.288 232.07 48.4137 231.935 48.5813 231.836C48.7489 231.735 48.9499 231.685 49.1843 231.685C49.4769 231.685 49.7163 231.776 49.9023 231.96C50.0884 232.141 50.1815 232.425 50.1815 232.81V235H49.6786V232.81C49.6786 232.568 49.6126 232.396 49.4805 232.292C49.3484 232.188 49.1928 232.136 49.0138 232.136C48.7837 232.136 48.6055 232.206 48.479 232.345C48.3526 232.483 48.2894 232.658 48.2894 232.869V235H47.7781V232.759C47.7781 232.572 47.7177 232.423 47.5969 232.309C47.4762 232.194 47.3207 232.136 47.1303 232.136C46.9996 232.136 46.8775 232.171 46.7638 232.241C46.6516 232.31 46.5607 232.407 46.4911 232.531C46.4229 232.653 46.3888 232.794 46.3888 232.955V235H45.886ZM56.3679 232H55.8395C55.8082 231.848 55.7536 231.714 55.6754 231.599C55.5987 231.484 55.505 231.388 55.3942 231.31C55.2848 231.23 55.1634 231.17 55.0298 231.131C54.8963 231.091 54.7571 231.071 54.6122 231.071C54.348 231.071 54.1087 231.138 53.8942 231.271C53.6811 231.405 53.5114 231.602 53.3849 231.862C53.2599 232.121 53.1974 232.44 53.1974 232.818C53.1974 233.196 53.2599 233.515 53.3849 233.775C53.5114 234.035 53.6811 234.232 53.8942 234.365C54.1087 234.499 54.348 234.565 54.6122 234.565C54.7571 234.565 54.8963 234.545 55.0298 234.506C55.1634 234.466 55.2848 234.407 55.3942 234.329C55.505 234.249 55.5987 234.152 55.6754 234.037C55.7536 233.92 55.8082 233.787 55.8395 233.636H56.3679C56.3281 233.859 56.2557 234.059 56.1506 234.235C56.0455 234.411 55.9148 234.561 55.7585 234.685C55.6023 234.807 55.4268 234.9 55.2322 234.964C55.0391 235.028 54.8324 235.06 54.6122 235.06C54.2401 235.06 53.9091 234.969 53.6193 234.787C53.3295 234.605 53.1016 234.347 52.9354 234.011C52.7692 233.676 52.6861 233.278 52.6861 232.818C52.6861 232.358 52.7692 231.96 52.9354 231.625C53.1016 231.29 53.3295 231.031 53.6193 230.849C53.9091 230.668 54.2401 230.577 54.6122 230.577C54.8324 230.577 55.0391 230.609 55.2322 230.673C55.4268 230.737 55.6023 230.83 55.7585 230.954C55.9148 231.076 56.0455 231.225 56.1506 231.401C56.2557 231.576 56.3281 231.776 56.3679 232ZM58.4831 235.068C58.1877 235.068 57.9284 234.998 57.7054 234.857C57.4838 234.717 57.3105 234.52 57.1855 234.267C57.062 234.014 57.0002 233.719 57.0002 233.381C57.0002 233.04 57.062 232.742 57.1855 232.488C57.3105 232.234 57.4838 232.036 57.7054 231.896C57.9284 231.755 58.1877 231.685 58.4831 231.685C58.7786 231.685 59.0371 231.755 59.2587 231.896C59.4817 232.036 59.655 232.234 59.7786 232.488C59.9036 232.742 59.9661 233.04 59.9661 233.381C59.9661 233.719 59.9036 234.014 59.7786 234.267C59.655 234.52 59.4817 234.717 59.2587 234.857C59.0371 234.998 58.7786 235.068 58.4831 235.068ZM58.4831 234.616C58.7076 234.616 58.8922 234.559 59.0371 234.444C59.182 234.329 59.2892 234.178 59.3588 233.99C59.4284 233.803 59.4632 233.599 59.4632 233.381C59.4632 233.162 59.4284 232.958 59.3588 232.769C59.2892 232.58 59.182 232.428 59.0371 232.311C58.8922 232.195 58.7076 232.136 58.4831 232.136C58.2587 232.136 58.074 232.195 57.9292 232.311C57.7843 232.428 57.677 232.58 57.6074 232.769C57.5378 232.958 57.503 233.162 57.503 233.381C57.503 233.599 57.5378 233.803 57.6074 233.99C57.677 234.178 57.7843 234.329 57.9292 234.444C58.074 234.559 58.2587 234.616 58.4831 234.616ZM62.0632 235.068C61.7678 235.068 61.5085 234.998 61.2855 234.857C61.0639 234.717 60.8906 234.52 60.7656 234.267C60.642 234.014 60.5803 233.719 60.5803 233.381C60.5803 233.04 60.642 232.742 60.7656 232.488C60.8906 232.234 61.0639 232.036 61.2855 231.896C61.5085 231.755 61.7678 231.685 62.0632 231.685C62.3587 231.685 62.6172 231.755 62.8388 231.896C63.0618 232.036 63.2351 232.234 63.3587 232.488C63.4837 232.742 63.5462 233.04 63.5462 233.381C63.5462 233.719 63.4837 234.014 63.3587 234.267C63.2351 234.52 63.0618 234.717 62.8388 234.857C62.6172 234.998 62.3587 235.068 62.0632 235.068ZM62.0632 234.616C62.2876 234.616 62.4723 234.559 62.6172 234.444C62.7621 234.329 62.8693 234.178 62.9389 233.99C63.0085 233.803 63.0433 233.599 63.0433 233.381C63.0433 233.162 63.0085 232.958 62.9389 232.769C62.8693 232.58 62.7621 232.428 62.6172 232.311C62.4723 232.195 62.2876 232.136 62.0632 232.136C61.8388 232.136 61.6541 232.195 61.5092 232.311C61.3643 232.428 61.2571 232.58 61.1875 232.769C61.1179 232.958 61.0831 233.162 61.0831 233.381C61.0831 233.599 61.1179 233.803 61.1875 233.99C61.2571 234.178 61.3643 234.329 61.5092 234.444C61.6541 234.559 61.8388 234.616 62.0632 234.616ZM64.8166 230.636V235H64.3137V230.636H64.8166ZM67.0671 235.068C66.7717 235.068 66.5124 234.998 66.2894 234.857C66.0678 234.717 65.8945 234.52 65.7695 234.267C65.646 234.014 65.5842 233.719 65.5842 233.381C65.5842 233.04 65.646 232.742 65.7695 232.488C65.8945 232.234 66.0678 232.036 66.2894 231.896C66.5124 231.755 66.7717 231.685 67.0671 231.685C67.3626 231.685 67.6211 231.755 67.8427 231.896C68.0657 232.036 68.239 232.234 68.3626 232.488C68.4876 232.742 68.5501 233.04 68.5501 233.381C68.5501 233.719 68.4876 234.014 68.3626 234.267C68.239 234.52 68.0657 234.717 67.8427 234.857C67.6211 234.998 67.3626 235.068 67.0671 235.068ZM67.0671 234.616C67.2915 234.616 67.4762 234.559 67.6211 234.444C67.766 234.329 67.8732 234.178 67.9428 233.99C68.0124 233.803 68.0472 233.599 68.0472 233.381C68.0472 233.162 68.0124 232.958 67.9428 232.769C67.8732 232.58 67.766 232.428 67.6211 232.311C67.4762 232.195 67.2915 232.136 67.0671 232.136C66.8427 232.136 66.658 232.195 66.5131 232.311C66.3683 232.428 66.261 232.58 66.1914 232.769C66.1218 232.958 66.087 233.162 66.087 233.381C66.087 233.599 66.1218 233.803 66.1914 233.99C66.261 234.178 66.3683 234.329 66.5131 234.444C66.658 234.559 66.8427 234.616 67.0671 234.616ZM69.3176 235V231.727H69.8034V232.222H69.8375C69.8972 232.06 70.0051 231.928 70.1614 231.827C70.3176 231.727 70.4938 231.676 70.6898 231.676C70.7267 231.676 70.7729 231.677 70.8283 231.678C70.8837 231.68 70.9256 231.682 70.954 231.685V232.196C70.937 232.192 70.8979 232.185 70.8368 232.177C70.7772 232.167 70.714 232.162 70.6472 232.162C70.4881 232.162 70.3461 232.195 70.2211 232.262C70.0975 232.327 69.9995 232.418 69.927 232.535C69.856 232.65 69.8205 232.781 69.8205 232.929V235H69.3176ZM73.8683 232.46L73.4165 232.588C73.3881 232.513 73.3462 232.44 73.2908 232.369C73.2369 232.296 73.163 232.237 73.0692 232.19C72.9755 232.143 72.8555 232.119 72.7092 232.119C72.5089 232.119 72.342 232.165 72.2085 232.258C72.0763 232.349 72.0103 232.464 72.0103 232.605C72.0103 232.73 72.0558 232.829 72.1467 232.901C72.2376 232.974 72.3796 233.034 72.5728 233.082L73.0586 233.202C73.3512 233.273 73.5692 233.381 73.7127 233.528C73.8562 233.673 73.9279 233.859 73.9279 234.088C73.9279 234.276 73.8739 234.443 73.766 234.591C73.6594 234.739 73.5103 234.855 73.3185 234.94C73.1268 235.026 72.9038 235.068 72.6495 235.068C72.3157 235.068 72.0394 234.996 71.8207 234.851C71.6019 234.706 71.4634 234.494 71.4052 234.216L71.8825 234.097C71.9279 234.273 72.0138 234.405 72.1403 234.493C72.2681 234.581 72.435 234.625 72.641 234.625C72.8754 234.625 73.0614 234.575 73.1992 234.476C73.3384 234.375 73.408 234.254 73.408 234.114C73.408 234 73.3683 233.905 73.2887 233.828C73.2092 233.75 73.087 233.692 72.9222 233.653L72.3768 233.526C72.0771 233.455 71.8569 233.344 71.7163 233.195C71.5771 233.045 71.5075 232.857 71.5075 232.631C71.5075 232.446 71.5593 232.283 71.663 232.141C71.7681 231.999 71.9109 231.887 72.0913 231.806C72.2731 231.725 72.479 231.685 72.7092 231.685C73.033 231.685 73.2873 231.756 73.4719 231.898C73.658 232.04 73.7901 232.227 73.8683 232.46ZM75.0513 235.034C74.9462 235.034 74.856 234.996 74.7807 234.921C74.7054 234.846 74.6678 234.756 74.6678 234.651C74.6678 234.545 74.7054 234.455 74.7807 234.38C74.856 234.305 74.9462 234.267 75.0513 234.267C75.1564 234.267 75.2466 234.305 75.3219 234.38C75.3972 234.455 75.4348 234.545 75.4348 234.651C75.4348 234.72 75.4171 234.784 75.3816 234.842C75.3475 234.901 75.3013 234.947 75.2431 234.983C75.1863 235.017 75.1223 235.034 75.0513 235.034ZM77.6667 235.068C77.3599 235.068 77.0957 234.996 76.8741 234.851C76.6525 234.706 76.4821 234.506 76.3627 234.252C76.2434 233.998 76.1838 233.707 76.1838 233.381C76.1838 233.048 76.2449 232.755 76.367 232.501C76.4906 232.245 76.6625 232.045 76.8826 231.902C77.1042 231.757 77.3627 231.685 77.6582 231.685C77.8883 231.685 78.0957 231.727 78.2804 231.812C78.465 231.898 78.6163 232.017 78.7342 232.17C78.8521 232.324 78.9252 232.503 78.9537 232.707H78.4508C78.4125 232.558 78.3272 232.426 78.1951 232.311C78.0645 232.195 77.8883 232.136 77.6667 232.136C77.4707 232.136 77.2988 232.187 77.1511 232.29C77.0048 232.391 76.8904 232.533 76.8081 232.718C76.7271 232.901 76.6866 233.116 76.6866 233.364C76.6866 233.616 76.7264 233.837 76.8059 234.024C76.8869 234.212 77.0005 234.357 77.1468 234.461C77.2946 234.565 77.4679 234.616 77.6667 234.616C77.7974 234.616 77.916 234.594 78.0225 234.548C78.1291 234.503 78.2193 234.438 78.2931 234.352C78.367 234.267 78.4196 234.165 78.4508 234.045H78.9537C78.9252 234.239 78.8549 234.413 78.7427 234.567C78.6319 234.721 78.4849 234.843 78.3017 234.934C78.1199 235.023 77.9082 235.068 77.6667 235.068ZM81.0183 235.068C80.7228 235.068 80.4636 234.998 80.2406 234.857C80.019 234.717 79.8457 234.52 79.7207 234.267C79.5971 234.014 79.5353 233.719 79.5353 233.381C79.5353 233.04 79.5971 232.742 79.7207 232.488C79.8457 232.234 80.019 232.036 80.2406 231.896C80.4636 231.755 80.7228 231.685 81.0183 231.685C81.3137 231.685 81.5723 231.755 81.7939 231.896C82.0169 232.036 82.1902 232.234 82.3137 232.488C82.4387 232.742 82.5012 233.04 82.5012 233.381C82.5012 233.719 82.4387 234.014 82.3137 234.267C82.1902 234.52 82.0169 234.717 81.7939 234.857C81.5723 234.998 81.3137 235.068 81.0183 235.068ZM81.0183 234.616C81.2427 234.616 81.4274 234.559 81.5723 234.444C81.7172 234.329 81.8244 234.178 81.894 233.99C81.9636 233.803 81.9984 233.599 81.9984 233.381C81.9984 233.162 81.9636 232.958 81.894 232.769C81.8244 232.58 81.7172 232.428 81.5723 232.311C81.4274 232.195 81.2427 232.136 81.0183 232.136C80.7939 232.136 80.6092 232.195 80.4643 232.311C80.3194 232.428 80.2122 232.58 80.1426 232.769C80.073 232.958 80.0382 233.162 80.0382 233.381C80.0382 233.599 80.073 233.803 80.1426 233.99C80.2122 234.178 80.3194 234.329 80.4643 234.444C80.6092 234.559 80.7939 234.616 81.0183 234.616Z" fill="black"/>
<path d="M294.381 233.031V235H293.878V230.636H294.381V232.239H294.424C294.5 232.07 294.615 231.935 294.769 231.836C294.924 231.735 295.13 231.685 295.387 231.685C295.61 231.685 295.805 231.729 295.973 231.819C296.14 231.907 296.27 232.043 296.363 232.226C296.456 232.408 296.503 232.639 296.503 232.92V235H296V232.955C296 232.695 295.933 232.494 295.798 232.352C295.664 232.208 295.479 232.136 295.242 232.136C295.077 232.136 294.929 232.171 294.799 232.241C294.669 232.31 294.567 232.412 294.492 232.545C294.418 232.679 294.381 232.841 294.381 233.031ZM298.846 231.727V232.153H297.15V231.727H298.846ZM297.645 230.943H298.148V234.062C298.148 234.205 298.168 234.311 298.209 234.382C298.252 234.452 298.306 234.499 298.371 234.523C298.438 234.545 298.508 234.557 298.582 234.557C298.638 234.557 298.683 234.554 298.719 234.548C298.754 234.541 298.782 234.536 298.804 234.531L298.906 234.983C298.872 234.996 298.824 235.009 298.763 235.021C298.702 235.036 298.625 235.043 298.531 235.043C298.389 235.043 298.25 235.012 298.113 234.951C297.979 234.89 297.866 234.797 297.777 234.672C297.689 234.547 297.645 234.389 297.645 234.199V230.943ZM301.026 231.727V232.153H299.33V231.727H301.026ZM299.824 230.943H300.327V234.062C300.327 234.205 300.348 234.311 300.389 234.382C300.432 234.452 300.486 234.499 300.551 234.523C300.618 234.545 300.688 234.557 300.762 234.557C300.817 234.557 300.863 234.554 300.898 234.548C300.934 234.541 300.962 234.536 300.983 234.531L301.086 234.983C301.052 234.996 301.004 235.009 300.943 235.021C300.882 235.036 300.805 235.043 300.711 235.043C300.569 235.043 300.43 235.012 300.293 234.951C300.158 234.89 300.046 234.797 299.956 234.672C299.868 234.547 299.824 234.389 299.824 234.199V230.943ZM301.782 236.227V231.727H302.268V232.247H302.328C302.365 232.19 302.416 232.118 302.481 232.03C302.548 231.94 302.643 231.861 302.767 231.791C302.892 231.72 303.061 231.685 303.274 231.685C303.55 231.685 303.792 231.754 304.003 231.891C304.213 232.029 304.377 232.224 304.495 232.477C304.613 232.73 304.672 233.028 304.672 233.372C304.672 233.719 304.613 234.019 304.495 234.273C304.377 234.526 304.214 234.722 304.005 234.862C303.796 234.999 303.555 235.068 303.282 235.068C303.072 235.068 302.904 235.033 302.778 234.964C302.651 234.893 302.554 234.812 302.486 234.723C302.417 234.632 302.365 234.557 302.328 234.497H302.285V236.227H301.782ZM302.277 233.364C302.277 233.611 302.313 233.829 302.385 234.018C302.458 234.205 302.564 234.352 302.703 234.459C302.842 234.564 303.013 234.616 303.214 234.616C303.425 234.616 303.6 234.561 303.741 234.45C303.883 234.338 303.989 234.187 304.06 233.999C304.133 233.808 304.169 233.597 304.169 233.364C304.169 233.134 304.133 232.926 304.062 232.741C303.993 232.555 303.887 232.408 303.745 232.3C303.604 232.191 303.427 232.136 303.214 232.136C303.01 232.136 302.838 232.188 302.699 232.292C302.559 232.394 302.454 232.538 302.383 232.722C302.312 232.906 302.277 233.119 302.277 233.364ZM307.757 232.46L307.305 232.588C307.277 232.513 307.235 232.44 307.18 232.369C307.126 232.296 307.052 232.237 306.958 232.19C306.864 232.143 306.744 232.119 306.598 232.119C306.398 232.119 306.231 232.165 306.097 232.258C305.965 232.349 305.899 232.464 305.899 232.605C305.899 232.73 305.944 232.829 306.035 232.901C306.126 232.974 306.268 233.034 306.461 233.082L306.947 233.202C307.24 233.273 307.458 233.381 307.601 233.528C307.745 233.673 307.817 233.859 307.817 234.088C307.817 234.276 307.763 234.443 307.655 234.591C307.548 234.739 307.399 234.855 307.207 234.94C307.015 235.026 306.792 235.068 306.538 235.068C306.204 235.068 305.928 234.996 305.709 234.851C305.491 234.706 305.352 234.494 305.294 234.216L305.771 234.097C305.817 234.273 305.903 234.405 306.029 234.493C306.157 234.581 306.324 234.625 306.53 234.625C306.764 234.625 306.95 234.575 307.088 234.476C307.227 234.375 307.297 234.254 307.297 234.114C307.297 234 307.257 233.905 307.177 233.828C307.098 233.75 306.976 233.692 306.811 233.653L306.265 233.526C305.966 233.455 305.746 233.344 305.605 233.195C305.466 233.045 305.396 232.857 305.396 232.631C305.396 232.446 305.448 232.283 305.552 232.141C305.657 231.999 305.8 231.887 305.98 231.806C306.162 231.725 306.368 231.685 306.598 231.685C306.922 231.685 307.176 231.756 307.361 231.898C307.547 232.04 307.679 232.227 307.757 232.46ZM308.94 235.034C308.835 235.034 308.745 234.996 308.669 234.921C308.594 234.846 308.556 234.756 308.556 234.651C308.556 234.545 308.594 234.455 308.669 234.38C308.745 234.305 308.835 234.267 308.94 234.267C309.045 234.267 309.135 234.305 309.211 234.38C309.286 234.455 309.324 234.545 309.324 234.651C309.324 234.72 309.306 234.784 309.27 234.842C309.236 234.901 309.19 234.947 309.132 234.983C309.075 235.017 309.011 235.034 308.94 235.034ZM308.94 232.605C308.835 232.605 308.745 232.567 308.669 232.492C308.594 232.417 308.556 232.327 308.556 232.222C308.556 232.116 308.594 232.026 308.669 231.951C308.745 231.876 308.835 231.838 308.94 231.838C309.045 231.838 309.135 231.876 309.211 231.951C309.286 232.026 309.324 232.116 309.324 232.222C309.324 232.291 309.306 232.355 309.27 232.413C309.236 232.472 309.19 232.518 309.132 232.554C309.075 232.588 309.011 232.605 308.94 232.605ZM311.768 230.432L310.362 235.656H309.902L311.308 230.432H311.768ZM313.907 230.432L312.501 235.656H312.041L313.447 230.432H313.907ZM315.833 235.068C315.526 235.068 315.262 234.996 315.04 234.851C314.819 234.706 314.648 234.506 314.529 234.252C314.409 233.998 314.35 233.707 314.35 233.381C314.35 233.048 314.411 232.755 314.533 232.501C314.657 232.245 314.828 232.045 315.049 231.902C315.27 231.757 315.529 231.685 315.824 231.685C316.054 231.685 316.262 231.727 316.446 231.812C316.631 231.898 316.782 232.017 316.9 232.17C317.018 232.324 317.091 232.503 317.12 232.707H316.617C316.578 232.558 316.493 232.426 316.361 232.311C316.23 232.195 316.054 232.136 315.833 232.136C315.637 232.136 315.465 232.187 315.317 232.29C315.171 232.391 315.056 232.533 314.974 232.718C314.893 232.901 314.853 233.116 314.853 233.364C314.853 233.616 314.892 233.837 314.972 234.024C315.053 234.212 315.167 234.357 315.313 234.461C315.461 234.565 315.634 234.616 315.833 234.616C315.963 234.616 316.082 234.594 316.189 234.548C316.295 234.503 316.385 234.438 316.459 234.352C316.533 234.267 316.586 234.165 316.617 234.045H317.12C317.091 234.239 317.021 234.413 316.909 234.567C316.798 234.721 316.651 234.843 316.468 234.934C316.286 235.023 316.074 235.068 315.833 235.068ZM319.184 235.068C318.889 235.068 318.63 234.998 318.407 234.857C318.185 234.717 318.012 234.52 317.887 234.267C317.763 234.014 317.701 233.719 317.701 233.381C317.701 233.04 317.763 232.742 317.887 232.488C318.012 232.234 318.185 232.036 318.407 231.896C318.63 231.755 318.889 231.685 319.184 231.685C319.48 231.685 319.738 231.755 319.96 231.896C320.183 232.036 320.356 232.234 320.48 232.488C320.605 232.742 320.667 233.04 320.667 233.381C320.667 233.719 320.605 234.014 320.48 234.267C320.356 234.52 320.183 234.717 319.96 234.857C319.738 234.998 319.48 235.068 319.184 235.068ZM319.184 234.616C319.409 234.616 319.593 234.559 319.738 234.444C319.883 234.329 319.99 234.178 320.06 233.99C320.13 233.803 320.164 233.599 320.164 233.381C320.164 233.162 320.13 232.958 320.06 232.769C319.99 232.58 319.883 232.428 319.738 232.311C319.593 232.195 319.409 232.136 319.184 232.136C318.96 232.136 318.775 232.195 318.63 232.311C318.485 232.428 318.378 232.58 318.309 232.769C318.239 232.958 318.204 233.162 318.204 233.381C318.204 233.599 318.239 233.803 318.309 233.99C318.378 234.178 318.485 234.329 318.63 234.444C318.775 234.559 318.96 234.616 319.184 234.616ZM322.764 235.068C322.469 235.068 322.21 234.998 321.987 234.857C321.765 234.717 321.592 234.52 321.467 234.267C321.343 234.014 321.281 233.719 321.281 233.381C321.281 233.04 321.343 232.742 321.467 232.488C321.592 232.234 321.765 232.036 321.987 231.896C322.21 231.755 322.469 231.685 322.764 231.685C323.06 231.685 323.318 231.755 323.54 231.896C323.763 232.036 323.936 232.234 324.06 232.488C324.185 232.742 324.247 233.04 324.247 233.381C324.247 233.719 324.185 234.014 324.06 234.267C323.936 234.52 323.763 234.717 323.54 234.857C323.318 234.998 323.06 235.068 322.764 235.068ZM322.764 234.616C322.989 234.616 323.173 234.559 323.318 234.444C323.463 234.329 323.57 234.178 323.64 233.99C323.71 233.803 323.744 233.599 323.744 233.381C323.744 233.162 323.71 232.958 323.64 232.769C323.57 232.58 323.463 232.428 323.318 232.311C323.173 232.195 322.989 232.136 322.764 232.136C322.54 232.136 322.355 232.195 322.21 232.311C322.066 232.428 321.958 232.58 321.889 232.769C321.819 232.958 321.784 233.162 321.784 233.381C321.784 233.599 321.819 233.803 321.889 233.99C321.958 234.178 322.066 234.329 322.21 234.444C322.355 234.559 322.54 234.616 322.764 234.616ZM325.518 230.636V235H325.015V230.636H325.518ZM327.768 235.068C327.473 235.068 327.214 234.998 326.991 234.857C326.769 234.717 326.596 234.52 326.471 234.267C326.347 234.014 326.285 233.719 326.285 233.381C326.285 233.04 326.347 232.742 326.471 232.488C326.596 232.234 326.769 232.036 326.991 231.896C327.214 231.755 327.473 231.685 327.768 231.685C328.064 231.685 328.322 231.755 328.544 231.896C328.767 232.036 328.94 232.234 329.064 232.488C329.189 232.742 329.251 233.04 329.251 233.381C329.251 233.719 329.189 234.014 329.064 234.267C328.94 234.52 328.767 234.717 328.544 234.857C328.322 234.998 328.064 235.068 327.768 235.068ZM327.768 234.616C327.993 234.616 328.177 234.559 328.322 234.444C328.467 234.329 328.574 234.178 328.644 233.99C328.714 233.803 328.748 233.599 328.748 233.381C328.748 233.162 328.714 232.958 328.644 232.769C328.574 232.58 328.467 232.428 328.322 232.311C328.177 232.195 327.993 232.136 327.768 232.136C327.544 232.136 327.359 232.195 327.214 232.311C327.069 232.428 326.962 232.58 326.893 232.769C326.823 232.958 326.788 233.162 326.788 233.381C326.788 233.599 326.823 233.803 326.893 233.99C326.962 234.178 327.069 234.329 327.214 234.444C327.359 234.559 327.544 234.616 327.768 234.616ZM330.019 235V231.727H330.505V232.222H330.539C330.598 232.06 330.706 231.928 330.863 231.827C331.019 231.727 331.195 231.676 331.391 231.676C331.428 231.676 331.474 231.677 331.529 231.678C331.585 231.68 331.627 231.682 331.655 231.685V232.196C331.638 232.192 331.599 232.185 331.538 232.177C331.478 232.167 331.415 232.162 331.348 232.162C331.189 232.162 331.047 232.195 330.922 232.262C330.799 232.327 330.701 232.418 330.628 232.535C330.557 232.65 330.522 232.781 330.522 232.929V235H330.019ZM334.569 232.46L334.118 232.588C334.089 232.513 334.047 232.44 333.992 232.369C333.938 232.296 333.864 232.237 333.77 232.19C333.677 232.143 333.557 232.119 333.41 232.119C333.21 232.119 333.043 232.165 332.91 232.258C332.778 232.349 332.711 232.464 332.711 232.605C332.711 232.73 332.757 232.829 332.848 232.901C332.939 232.974 333.081 233.034 333.274 233.082L333.76 233.202C334.052 233.273 334.27 233.381 334.414 233.528C334.557 233.673 334.629 233.859 334.629 234.088C334.629 234.276 334.575 234.443 334.467 234.591C334.361 234.739 334.211 234.855 334.02 234.94C333.828 235.026 333.605 235.068 333.351 235.068C333.017 235.068 332.741 234.996 332.522 234.851C332.303 234.706 332.165 234.494 332.106 234.216L332.584 234.097C332.629 234.273 332.715 234.405 332.841 234.493C332.969 234.581 333.136 234.625 333.342 234.625C333.577 234.625 333.763 234.575 333.9 234.476C334.04 234.375 334.109 234.254 334.109 234.114C334.109 234 334.069 233.905 333.99 233.828C333.91 233.75 333.788 233.692 333.623 233.653L333.078 233.526C332.778 233.455 332.558 233.344 332.417 233.195C332.278 233.045 332.209 232.857 332.209 232.631C332.209 232.446 332.26 232.283 332.364 232.141C332.469 231.999 332.612 231.887 332.792 231.806C332.974 231.725 333.18 231.685 333.41 231.685C333.734 231.685 333.988 231.756 334.173 231.898C334.359 232.04 334.491 232.227 334.569 232.46ZM335.752 235.034C335.647 235.034 335.557 234.996 335.482 234.921C335.407 234.846 335.369 234.756 335.369 234.651C335.369 234.545 335.407 234.455 335.482 234.38C335.557 234.305 335.647 234.267 335.752 234.267C335.858 234.267 335.948 234.305 336.023 234.38C336.098 234.455 336.136 234.545 336.136 234.651C336.136 234.72 336.118 234.784 336.083 234.842C336.049 234.901 336.002 234.947 335.944 234.983C335.887 235.017 335.824 235.034 335.752 235.034ZM338.368 235.068C338.061 235.068 337.797 234.996 337.575 234.851C337.354 234.706 337.183 234.506 337.064 234.252C336.945 233.998 336.885 233.707 336.885 233.381C336.885 233.048 336.946 232.755 337.068 232.501C337.192 232.245 337.364 232.045 337.584 231.902C337.805 231.757 338.064 231.685 338.359 231.685C338.589 231.685 338.797 231.727 338.982 231.812C339.166 231.898 339.317 232.017 339.435 232.17C339.553 232.324 339.626 232.503 339.655 232.707H339.152C339.114 232.558 339.028 232.426 338.896 232.311C338.766 232.195 338.589 232.136 338.368 232.136C338.172 232.136 338 232.187 337.852 232.29C337.706 232.391 337.592 232.533 337.509 232.718C337.428 232.901 337.388 233.116 337.388 233.364C337.388 233.616 337.428 233.837 337.507 234.024C337.588 234.212 337.702 234.357 337.848 234.461C337.996 234.565 338.169 234.616 338.368 234.616C338.499 234.616 338.617 234.594 338.724 234.548C338.83 234.503 338.92 234.438 338.994 234.352C339.068 234.267 339.121 234.165 339.152 234.045H339.655C339.626 234.239 339.556 234.413 339.444 234.567C339.333 234.721 339.186 234.843 339.003 234.934C338.821 235.023 338.609 235.068 338.368 235.068ZM341.719 235.068C341.424 235.068 341.165 234.998 340.942 234.857C340.72 234.717 340.547 234.52 340.422 234.267C340.298 234.014 340.237 233.719 340.237 233.381C340.237 233.04 340.298 232.742 340.422 232.488C340.547 232.234 340.72 232.036 340.942 231.896C341.165 231.755 341.424 231.685 341.719 231.685C342.015 231.685 342.273 231.755 342.495 231.896C342.718 232.036 342.891 232.234 343.015 232.488C343.14 232.742 343.202 233.04 343.202 233.381C343.202 233.719 343.14 234.014 343.015 234.267C342.891 234.52 342.718 234.717 342.495 234.857C342.273 234.998 342.015 235.068 341.719 235.068ZM341.719 234.616C341.944 234.616 342.129 234.559 342.273 234.444C342.418 234.329 342.526 234.178 342.595 233.99C342.665 233.803 342.7 233.599 342.7 233.381C342.7 233.162 342.665 232.958 342.595 232.769C342.526 232.58 342.418 232.428 342.273 232.311C342.129 232.195 341.944 232.136 341.719 232.136C341.495 232.136 341.31 232.195 341.165 232.311C341.021 232.428 340.913 232.58 340.844 232.769C340.774 232.958 340.739 233.162 340.739 233.381C340.739 233.599 340.774 233.803 340.844 233.99C340.913 234.178 341.021 234.329 341.165 234.444C341.31 234.559 341.495 234.616 341.719 234.616ZM345.513 230.432L344.106 235.656H343.646L345.052 230.432H345.513ZM347.481 235.068C347.165 235.068 346.893 234.999 346.665 234.859C346.438 234.719 346.262 234.523 346.138 234.271C346.016 234.018 345.955 233.724 345.955 233.389C345.955 233.054 346.016 232.759 346.138 232.503C346.262 232.246 346.434 232.045 346.654 231.902C346.876 231.757 347.134 231.685 347.43 231.685C347.6 231.685 347.768 231.713 347.935 231.77C348.101 231.827 348.252 231.919 348.388 232.047C348.525 232.173 348.634 232.341 348.714 232.55C348.795 232.759 348.836 233.016 348.836 233.321V233.534H346.313V233.099H348.325C348.325 232.915 348.288 232.75 348.214 232.605C348.141 232.46 348.038 232.346 347.903 232.262C347.769 232.178 347.612 232.136 347.43 232.136C347.229 232.136 347.056 232.186 346.91 232.286C346.765 232.384 346.653 232.511 346.575 232.669C346.497 232.827 346.458 232.996 346.458 233.176V233.466C346.458 233.713 346.501 233.923 346.586 234.094C346.673 234.265 346.793 234.395 346.946 234.484C347.099 234.572 347.278 234.616 347.481 234.616C347.613 234.616 347.732 234.598 347.839 234.561C347.947 234.523 348.04 234.466 348.118 234.391C348.196 234.314 348.256 234.219 348.299 234.105L348.785 234.241C348.734 234.406 348.648 234.551 348.527 234.676C348.406 234.8 348.257 234.896 348.08 234.966C347.902 235.034 347.702 235.068 347.481 235.068ZM350.837 235.068C350.564 235.068 350.323 234.999 350.114 234.862C349.906 234.722 349.742 234.526 349.624 234.273C349.506 234.019 349.447 233.719 349.447 233.372C349.447 233.028 349.506 232.73 349.624 232.477C349.742 232.224 349.906 232.029 350.116 231.891C350.327 231.754 350.57 231.685 350.845 231.685C351.058 231.685 351.227 231.72 351.35 231.791C351.475 231.861 351.57 231.94 351.636 232.03C351.702 232.118 351.754 232.19 351.791 232.247H351.834V230.636H352.337V235H351.851V234.497H351.791C351.754 234.557 351.702 234.632 351.634 234.723C351.565 234.812 351.468 234.893 351.342 234.964C351.215 235.033 351.047 235.068 350.837 235.068ZM350.905 234.616C351.107 234.616 351.277 234.564 351.416 234.459C351.555 234.352 351.661 234.205 351.734 234.018C351.806 233.829 351.842 233.611 351.842 233.364C351.842 233.119 351.807 232.906 351.736 232.722C351.665 232.538 351.56 232.394 351.42 232.292C351.281 232.188 351.109 232.136 350.905 232.136C350.692 232.136 350.514 232.191 350.372 232.3C350.232 232.408 350.126 232.555 350.055 232.741C349.985 232.926 349.95 233.134 349.95 233.364C349.95 233.597 349.986 233.808 350.057 233.999C350.129 234.187 350.236 234.338 350.376 234.45C350.518 234.561 350.695 234.616 350.905 234.616ZM354.7 235.068C354.384 235.068 354.112 234.999 353.884 234.859C353.656 234.719 353.481 234.523 353.357 234.271C353.235 234.018 353.174 233.724 353.174 233.389C353.174 233.054 353.235 232.759 353.357 232.503C353.481 232.246 353.653 232.045 353.873 231.902C354.094 231.757 354.353 231.685 354.648 231.685C354.819 231.685 354.987 231.713 355.153 231.77C355.32 231.827 355.471 231.919 355.607 232.047C355.744 232.173 355.852 232.341 355.933 232.55C356.014 232.759 356.055 233.016 356.055 233.321V233.534H353.532V233.099H355.543C355.543 232.915 355.506 232.75 355.433 232.605C355.36 232.46 355.256 232.346 355.121 232.262C354.988 232.178 354.83 232.136 354.648 232.136C354.448 232.136 354.275 232.186 354.129 232.286C353.984 232.384 353.872 232.511 353.794 232.669C353.716 232.827 353.677 232.996 353.677 233.176V233.466C353.677 233.713 353.719 233.923 353.805 234.094C353.891 234.265 354.011 234.395 354.165 234.484C354.318 234.572 354.496 234.616 354.7 234.616C354.832 234.616 354.951 234.598 355.058 234.561C355.165 234.523 355.259 234.466 355.337 234.391C355.415 234.314 355.475 234.219 355.518 234.105L356.004 234.241C355.952 234.406 355.866 234.551 355.746 234.676C355.625 234.8 355.476 234.896 355.298 234.966C355.121 235.034 354.921 235.068 354.7 235.068ZM358.234 235.06C357.913 235.06 357.64 234.972 357.414 234.798C357.188 234.621 357.016 234.366 356.896 234.033C356.777 233.697 356.717 233.293 356.717 232.818C356.717 232.347 356.777 231.944 356.896 231.61C357.017 231.275 357.19 231.019 357.416 230.843C357.643 230.665 357.916 230.577 358.234 230.577C358.553 230.577 358.825 230.665 359.05 230.843C359.278 231.019 359.451 231.275 359.57 231.61C359.691 231.944 359.751 232.347 359.751 232.818C359.751 233.293 359.692 233.697 359.572 234.033C359.453 234.366 359.281 234.621 359.055 234.798C358.829 234.972 358.555 235.06 358.234 235.06ZM358.234 234.591C358.553 234.591 358.8 234.437 358.976 234.131C359.152 233.824 359.24 233.386 359.24 232.818C359.24 232.44 359.2 232.119 359.119 231.853C359.039 231.587 358.924 231.385 358.773 231.246C358.624 231.107 358.445 231.037 358.234 231.037C357.919 231.037 357.673 231.192 357.495 231.504C357.317 231.813 357.229 232.251 357.229 232.818C357.229 233.196 357.268 233.517 357.348 233.781C357.428 234.045 357.542 234.246 357.691 234.384C357.842 234.522 358.023 234.591 358.234 234.591ZM361.805 235.068C361.533 235.068 361.292 234.999 361.083 234.862C360.874 234.722 360.711 234.526 360.593 234.273C360.475 234.019 360.416 233.719 360.416 233.372C360.416 233.028 360.475 232.73 360.593 232.477C360.711 232.224 360.875 232.029 361.085 231.891C361.295 231.754 361.538 231.685 361.814 231.685C362.027 231.685 362.195 231.72 362.319 231.791C362.444 231.861 362.539 231.94 362.604 232.03C362.671 232.118 362.723 232.19 362.76 232.247H362.803V230.636H363.305V235H362.82V234.497H362.76C362.723 234.557 362.67 234.632 362.602 234.723C362.534 234.812 362.437 234.893 362.31 234.964C362.184 235.033 362.016 235.068 361.805 235.068ZM361.874 234.616C362.075 234.616 362.246 234.564 362.385 234.459C362.524 234.352 362.63 234.205 362.702 234.018C362.775 233.829 362.811 233.611 362.811 233.364C362.811 233.119 362.776 232.906 362.705 232.722C362.634 232.538 362.528 232.394 362.389 232.292C362.25 232.188 362.078 232.136 361.874 232.136C361.661 232.136 361.483 232.191 361.341 232.3C361.2 232.408 361.094 232.555 361.023 232.741C360.954 232.926 360.919 233.134 360.919 233.364C360.919 233.597 360.955 233.808 361.026 233.999C361.098 234.187 361.205 234.338 361.345 234.45C361.487 234.561 361.663 234.616 361.874 234.616ZM364.185 234.105V233.67L366.103 230.636H366.418V231.31H366.205L364.756 233.602V233.636H367.339V234.105H364.185ZM366.239 235V233.973V233.771V230.636H366.742V235H366.239ZM370.021 232.895V233.364H368.112V232.895H370.021ZM372.278 235.068C371.962 235.068 371.69 234.999 371.462 234.859C371.234 234.719 371.059 234.523 370.935 234.271C370.813 234.018 370.752 233.724 370.752 233.389C370.752 233.054 370.813 232.759 370.935 232.503C371.059 232.246 371.231 232.045 371.451 231.902C371.673 231.757 371.931 231.685 372.227 231.685C372.397 231.685 372.565 231.713 372.732 231.77C372.898 231.827 373.049 231.919 373.185 232.047C373.322 232.173 373.43 232.341 373.511 232.55C373.592 232.759 373.633 233.016 373.633 233.321V233.534H371.11V233.099H373.121C373.121 232.915 373.085 232.75 373.011 232.605C372.938 232.46 372.835 232.346 372.7 232.262C372.566 232.178 372.408 232.136 372.227 232.136C372.026 232.136 371.853 232.186 371.707 232.286C371.562 232.384 371.45 232.511 371.372 232.669C371.294 232.827 371.255 232.996 371.255 233.176V233.466C371.255 233.713 371.298 233.923 371.383 234.094C371.469 234.265 371.589 234.395 371.743 234.484C371.896 234.572 372.075 234.616 372.278 234.616C372.41 234.616 372.529 234.598 372.636 234.561C372.744 234.523 372.837 234.466 372.915 234.391C372.993 234.314 373.053 234.219 373.096 234.105L373.582 234.241C373.531 234.406 373.445 234.551 373.324 234.676C373.203 234.8 373.054 234.896 372.876 234.966C372.699 235.034 372.499 235.068 372.278 235.068ZM375.838 235.06C375.659 235.057 375.48 235.023 375.301 234.957C375.122 234.892 374.959 234.782 374.811 234.627C374.663 234.471 374.545 234.26 374.455 233.994C374.366 233.727 374.321 233.392 374.321 232.989C374.321 232.602 374.357 232.26 374.43 231.962C374.502 231.662 374.607 231.41 374.745 231.205C374.883 230.999 375.049 230.843 375.244 230.737C375.44 230.63 375.661 230.577 375.906 230.577C376.151 230.577 376.368 230.626 376.558 230.724C376.75 230.82 376.906 230.955 377.027 231.129C377.148 231.302 377.226 231.501 377.261 231.727H376.741C376.693 231.531 376.599 231.369 376.46 231.239C376.321 231.11 376.136 231.045 375.906 231.045C375.568 231.045 375.302 231.192 375.107 231.487C374.914 231.781 374.817 232.193 374.815 232.724H374.849C374.929 232.604 375.023 232.501 375.133 232.415C375.244 232.329 375.366 232.262 375.499 232.215C375.633 232.168 375.774 232.145 375.923 232.145C376.173 232.145 376.402 232.207 376.609 232.332C376.817 232.456 376.983 232.627 377.108 232.846C377.233 233.063 377.295 233.312 377.295 233.594C377.295 233.864 377.235 234.111 377.114 234.335C376.994 234.558 376.824 234.736 376.605 234.868C376.388 234.999 376.132 235.062 375.838 235.06ZM375.838 234.591C376.017 234.591 376.178 234.546 376.32 234.457C376.463 234.367 376.576 234.247 376.658 234.097C376.742 233.946 376.784 233.778 376.784 233.594C376.784 233.413 376.744 233.249 376.663 233.102C376.583 232.952 376.473 232.834 376.332 232.746C376.193 232.658 376.034 232.614 375.855 232.614C375.72 232.614 375.594 232.641 375.478 232.695C375.362 232.747 375.259 232.82 375.171 232.912C375.085 233.004 375.016 233.11 374.967 233.229C374.917 233.347 374.892 233.472 374.892 233.602C374.892 233.776 374.933 233.937 375.013 234.088C375.096 234.239 375.208 234.36 375.35 234.452C375.494 234.545 375.656 234.591 375.838 234.591ZM379.471 235.068C379.165 235.068 378.9 234.996 378.679 234.851C378.457 234.706 378.287 234.506 378.167 234.252C378.048 233.998 377.988 233.707 377.988 233.381C377.988 233.048 378.05 232.755 378.172 232.501C378.295 232.245 378.467 232.045 378.687 231.902C378.909 231.757 379.167 231.685 379.463 231.685C379.693 231.685 379.9 231.727 380.085 231.812C380.27 231.898 380.421 232.017 380.539 232.17C380.657 232.324 380.73 232.503 380.758 232.707H380.256C380.217 232.558 380.132 232.426 380 232.311C379.869 232.195 379.693 232.136 379.471 232.136C379.275 232.136 379.104 232.187 378.956 232.29C378.809 232.391 378.695 232.533 378.613 232.718C378.532 232.901 378.491 233.116 378.491 233.364C378.491 233.616 378.531 233.837 378.611 234.024C378.692 234.212 378.805 234.357 378.952 234.461C379.099 234.565 379.273 234.616 379.471 234.616C379.602 234.616 379.721 234.594 379.827 234.548C379.934 234.503 380.024 234.438 380.098 234.352C380.172 234.267 380.224 234.165 380.256 234.045H380.758C380.73 234.239 380.66 234.413 380.547 234.567C380.437 234.721 380.29 234.843 380.106 234.934C379.925 235.023 379.713 235.068 379.471 235.068ZM382.823 235.068C382.516 235.068 382.252 234.996 382.03 234.851C381.809 234.706 381.638 234.506 381.519 234.252C381.4 233.998 381.34 233.707 381.34 233.381C381.34 233.048 381.401 232.755 381.523 232.501C381.647 232.245 381.819 232.045 382.039 231.902C382.26 231.757 382.519 231.685 382.814 231.685C383.045 231.685 383.252 231.727 383.437 231.812C383.621 231.898 383.773 232.017 383.89 232.17C384.008 232.324 384.081 232.503 384.11 232.707H383.607C383.569 232.558 383.483 232.426 383.351 232.311C383.221 232.195 383.045 232.136 382.823 232.136C382.627 232.136 382.455 232.187 382.307 232.29C382.161 232.391 382.047 232.533 381.964 232.718C381.883 232.901 381.843 233.116 381.843 233.364C381.843 233.616 381.883 233.837 381.962 234.024C382.043 234.212 382.157 234.357 382.303 234.461C382.451 234.565 382.624 234.616 382.823 234.616C382.954 234.616 383.072 234.594 383.179 234.548C383.285 234.503 383.376 234.438 383.449 234.352C383.523 234.267 383.576 234.165 383.607 234.045H384.11C384.081 234.239 384.011 234.413 383.899 234.567C383.788 234.721 383.641 234.843 383.458 234.934C383.276 235.023 383.064 235.068 382.823 235.068ZM384.913 235V230.636H385.416V232.247H385.459C385.496 232.19 385.547 232.118 385.612 232.03C385.679 231.94 385.774 231.861 385.898 231.791C386.023 231.72 386.192 231.685 386.405 231.685C386.68 231.685 386.923 231.754 387.133 231.891C387.344 232.029 387.508 232.224 387.626 232.477C387.743 232.73 387.802 233.028 387.802 233.372C387.802 233.719 387.743 234.019 387.626 234.273C387.508 234.526 387.344 234.722 387.135 234.862C386.927 234.999 386.686 235.068 386.413 235.068C386.203 235.068 386.035 235.033 385.908 234.964C385.782 234.893 385.684 234.812 385.616 234.723C385.548 234.632 385.496 234.557 385.459 234.497H385.399V235H384.913ZM385.407 233.364C385.407 233.611 385.444 233.829 385.516 234.018C385.589 234.205 385.694 234.352 385.834 234.459C385.973 234.564 386.143 234.616 386.345 234.616C386.555 234.616 386.731 234.561 386.871 234.45C387.013 234.338 387.12 234.187 387.191 233.999C387.263 233.808 387.3 233.597 387.3 233.364C387.3 233.134 387.264 232.926 387.193 232.741C387.123 232.555 387.018 232.408 386.876 232.3C386.735 232.191 386.558 232.136 386.345 232.136C386.14 232.136 385.969 232.188 385.829 232.292C385.69 232.394 385.585 232.538 385.514 232.722C385.443 232.906 385.407 233.119 385.407 233.364ZM388.563 235V234.616L390.003 233.04C390.172 232.855 390.312 232.695 390.421 232.558C390.53 232.42 390.611 232.291 390.664 232.17C390.718 232.048 390.745 231.92 390.745 231.787C390.745 231.634 390.708 231.501 390.634 231.388C390.562 231.276 390.462 231.19 390.336 231.129C390.209 231.067 390.067 231.037 389.91 231.037C389.742 231.037 389.596 231.072 389.471 231.141C389.347 231.21 389.251 231.305 389.183 231.429C389.116 231.553 389.083 231.697 389.083 231.864H388.58C388.58 231.608 388.639 231.384 388.757 231.19C388.875 230.997 389.035 230.847 389.238 230.739C389.443 230.631 389.672 230.577 389.927 230.577C390.182 230.577 390.409 230.631 390.606 230.739C390.804 230.847 390.959 230.992 391.071 231.175C391.183 231.359 391.239 231.562 391.239 231.787C391.239 231.947 391.21 232.104 391.152 232.258C391.095 232.41 390.996 232.58 390.854 232.767C390.713 232.953 390.518 233.18 390.268 233.449L389.287 234.497V234.531H391.316V235H388.563ZM394.079 232.895V233.364H392.17V232.895H394.079ZM396.2 235.068C395.927 235.068 395.686 234.999 395.478 234.862C395.269 234.722 395.105 234.526 394.988 234.273C394.87 234.019 394.811 233.719 394.811 233.372C394.811 233.028 394.87 232.73 394.988 232.477C395.105 232.224 395.27 232.029 395.48 231.891C395.69 231.754 395.933 231.685 396.208 231.685C396.422 231.685 396.59 231.72 396.713 231.791C396.838 231.861 396.934 231.94 396.999 232.03C397.066 232.118 397.118 232.19 397.154 232.247H397.197V230.636H397.7V235H397.214V234.497H397.154C397.118 234.557 397.065 234.632 396.997 234.723C396.929 234.812 396.831 234.893 396.705 234.964C396.578 235.033 396.41 235.068 396.2 235.068ZM396.268 234.616C396.47 234.616 396.64 234.564 396.779 234.459C396.919 234.352 397.025 234.205 397.097 234.018C397.169 233.829 397.206 233.611 397.206 233.364C397.206 233.119 397.17 232.906 397.099 232.722C397.028 232.538 396.923 232.394 396.784 232.292C396.645 232.188 396.473 232.136 396.268 232.136C396.055 232.136 395.877 232.191 395.735 232.3C395.595 232.408 395.489 232.555 395.418 232.741C395.348 232.926 395.314 233.134 395.314 233.364C395.314 233.597 395.349 233.808 395.42 233.999C395.493 234.187 395.599 234.338 395.74 234.45C395.882 234.561 396.058 234.616 396.268 234.616ZM399.926 235.068C399.654 235.068 399.413 234.999 399.204 234.862C398.995 234.722 398.832 234.526 398.714 234.273C398.596 234.019 398.537 233.719 398.537 233.372C398.537 233.028 398.596 232.73 398.714 232.477C398.832 232.224 398.996 232.029 399.206 231.891C399.417 231.754 399.659 231.685 399.935 231.685C400.148 231.685 400.316 231.72 400.44 231.791C400.565 231.861 400.66 231.94 400.725 232.03C400.792 232.118 400.844 232.19 400.881 232.247H400.924V230.636H401.426V235H400.941V234.497H400.881C400.844 234.557 400.792 234.632 400.723 234.723C400.655 234.812 400.558 234.893 400.431 234.964C400.305 235.033 400.137 235.068 399.926 235.068ZM399.995 234.616C400.196 234.616 400.367 234.564 400.506 234.459C400.645 234.352 400.751 234.205 400.824 234.018C400.896 233.829 400.932 233.611 400.932 233.364C400.932 233.119 400.897 232.906 400.826 232.722C400.755 232.538 400.65 232.394 400.51 232.292C400.371 232.188 400.199 232.136 399.995 232.136C399.782 232.136 399.604 232.191 399.462 232.3C399.321 232.408 399.216 232.555 399.145 232.741C399.075 232.926 399.04 233.134 399.04 233.364C399.04 233.597 399.076 233.808 399.147 233.999C399.219 234.187 399.326 234.338 399.466 234.45C399.608 234.561 399.784 234.616 399.995 234.616ZM402.485 235V230.636H402.988V232.247H403.031C403.068 232.19 403.119 232.118 403.184 232.03C403.251 231.94 403.346 231.861 403.47 231.791C403.595 231.72 403.764 231.685 403.977 231.685C404.252 231.685 404.495 231.754 404.706 231.891C404.916 232.029 405.08 232.224 405.198 232.477C405.316 232.73 405.375 233.028 405.375 233.372C405.375 233.719 405.316 234.019 405.198 234.273C405.08 234.526 404.917 234.722 404.708 234.862C404.499 234.999 404.258 235.068 403.985 235.068C403.775 235.068 403.607 235.033 403.48 234.964C403.354 234.893 403.257 234.812 403.189 234.723C403.12 234.632 403.068 234.557 403.031 234.497H402.971V235H402.485ZM402.98 233.364C402.98 233.611 403.016 233.829 403.088 234.018C403.161 234.205 403.267 234.352 403.406 234.459C403.545 234.564 403.716 234.616 403.917 234.616C404.127 234.616 404.303 234.561 404.444 234.45C404.586 234.338 404.692 234.187 404.763 233.999C404.836 233.808 404.872 233.597 404.872 233.364C404.872 233.134 404.836 232.926 404.765 232.741C404.696 232.555 404.59 232.408 404.448 232.3C404.307 232.191 404.13 232.136 403.917 232.136C403.713 232.136 403.541 232.188 403.402 232.292C403.262 232.394 403.157 232.538 403.086 232.722C403.015 232.906 402.98 233.119 402.98 233.364ZM407.533 235.06C407.24 235.06 406.982 235.008 406.757 234.904C406.534 234.799 406.36 234.655 406.235 234.472C406.11 234.287 406.049 234.077 406.05 233.841C406.049 233.656 406.085 233.486 406.159 233.33C406.233 233.172 406.333 233.04 406.461 232.935C406.591 232.829 406.735 232.761 406.894 232.733V232.707C406.685 232.653 406.519 232.536 406.395 232.356C406.272 232.174 406.211 231.967 406.212 231.736C406.211 231.514 406.267 231.316 406.38 231.141C406.494 230.967 406.65 230.829 406.849 230.728C407.049 230.627 407.277 230.577 407.533 230.577C407.786 230.577 408.012 230.627 408.211 230.728C408.409 230.829 408.566 230.967 408.679 231.141C408.794 231.316 408.853 231.514 408.854 231.736C408.853 231.967 408.789 232.174 408.664 232.356C408.541 232.536 408.377 232.653 408.172 232.707V232.733C408.33 232.761 408.472 232.829 408.598 232.935C408.725 233.04 408.826 233.172 408.901 233.33C408.976 233.486 409.015 233.656 409.016 233.841C409.015 234.077 408.951 234.287 408.824 234.472C408.699 234.655 408.525 234.799 408.302 234.904C408.081 235.008 407.824 235.06 407.533 235.06ZM407.533 234.591C407.73 234.591 407.901 234.559 408.044 234.495C408.188 234.431 408.299 234.341 408.377 234.224C408.455 234.108 408.495 233.972 408.496 233.815C408.495 233.651 408.452 233.505 408.368 233.379C408.284 233.252 408.17 233.153 408.025 233.08C407.882 233.008 407.718 232.972 407.533 232.972C407.347 232.972 407.181 233.008 407.034 233.08C406.89 233.153 406.775 233.252 406.691 233.379C406.609 233.505 406.569 233.651 406.57 233.815C406.569 233.972 406.606 234.108 406.683 234.224C406.761 234.341 406.873 234.431 407.017 234.495C407.162 234.559 407.334 234.591 407.533 234.591ZM407.533 232.52C407.689 232.52 407.828 232.489 407.949 232.426C408.071 232.364 408.167 232.276 408.236 232.164C408.306 232.052 408.341 231.92 408.343 231.77C408.341 231.622 408.306 231.494 408.238 231.384C408.17 231.273 408.076 231.188 407.955 231.129C407.834 231.067 407.694 231.037 407.533 231.037C407.37 231.037 407.227 231.067 407.105 231.129C406.983 231.188 406.888 231.273 406.821 231.384C406.755 231.494 406.722 231.622 406.723 231.77C406.722 231.92 406.755 232.052 406.824 232.164C406.893 232.276 406.989 232.364 407.111 232.426C407.233 232.489 407.374 232.52 407.533 232.52ZM411.222 230.577C411.401 230.578 411.58 230.612 411.759 230.679C411.938 230.746 412.101 230.857 412.249 231.011C412.396 231.165 412.515 231.374 412.605 231.64C412.694 231.906 412.739 232.239 412.739 232.639C412.739 233.027 412.702 233.371 412.628 233.673C412.556 233.972 412.45 234.225 412.313 234.431C412.176 234.637 412.01 234.793 411.814 234.9C411.619 235.006 411.399 235.06 411.154 235.06C410.909 235.06 410.691 235.011 410.499 234.915C410.309 234.817 410.153 234.681 410.031 234.508C409.91 234.333 409.833 234.131 409.798 233.901H410.318C410.365 234.101 410.458 234.266 410.597 234.397C410.738 234.526 410.923 234.591 411.154 234.591C411.49 234.591 411.756 234.444 411.95 234.15C412.146 233.856 412.244 233.44 412.244 232.903H412.21C412.131 233.023 412.036 233.126 411.927 233.212C411.818 233.299 411.696 233.366 411.563 233.413C411.429 233.46 411.287 233.483 411.137 233.483C410.887 233.483 410.657 233.421 410.448 233.298C410.241 233.173 410.075 233.001 409.95 232.784C409.826 232.565 409.764 232.315 409.764 232.034C409.764 231.767 409.824 231.523 409.943 231.301C410.064 231.078 410.233 230.901 410.45 230.768C410.669 230.636 410.926 230.572 411.222 230.577ZM411.222 231.045C411.043 231.045 410.882 231.09 410.738 231.18C410.596 231.268 410.483 231.387 410.399 231.538C410.317 231.687 410.276 231.852 410.276 232.034C410.276 232.216 410.316 232.381 410.395 232.531C410.476 232.678 410.586 232.796 410.725 232.884C410.866 232.971 411.026 233.014 411.205 233.014C411.34 233.014 411.465 232.988 411.582 232.935C411.698 232.881 411.8 232.808 411.887 232.716C411.975 232.622 412.044 232.516 412.093 232.398C412.143 232.279 412.168 232.155 412.168 232.026C412.168 231.855 412.127 231.695 412.044 231.546C411.963 231.397 411.851 231.276 411.708 231.184C411.566 231.092 411.404 231.045 411.222 231.045ZM413.577 235V234.616L415.017 233.04C415.186 232.855 415.325 232.695 415.435 232.558C415.544 232.42 415.625 232.291 415.678 232.17C415.732 232.048 415.759 231.92 415.759 231.787C415.759 231.634 415.722 231.501 415.648 231.388C415.575 231.276 415.476 231.19 415.349 231.129C415.223 231.067 415.081 231.037 414.923 231.037C414.756 231.037 414.609 231.072 414.484 231.141C414.361 231.21 414.265 231.305 414.197 231.429C414.13 231.553 414.097 231.697 414.097 231.864H413.594C413.594 231.608 413.653 231.384 413.771 231.19C413.888 230.997 414.049 230.847 414.252 230.739C414.457 230.631 414.686 230.577 414.94 230.577C415.196 230.577 415.423 230.631 415.62 230.739C415.817 230.847 415.972 230.992 416.085 231.175C416.197 231.359 416.253 231.562 416.253 231.787C416.253 231.947 416.224 232.104 416.165 232.258C416.109 232.41 416.009 232.58 415.867 232.767C415.727 232.953 415.531 233.18 415.281 233.449L414.301 234.497V234.531H416.33V235H413.577ZM419.093 232.895V233.364H417.184V232.895H419.093ZM420.046 235V230.636H420.549V232.247H420.591C420.628 232.19 420.68 232.118 420.745 232.03C420.812 231.94 420.907 231.861 421.03 231.791C421.155 231.72 421.324 231.685 421.537 231.685C421.813 231.685 422.056 231.754 422.266 231.891C422.476 232.029 422.64 232.224 422.758 232.477C422.876 232.73 422.935 233.028 422.935 233.372C422.935 233.719 422.876 234.019 422.758 234.273C422.64 234.526 422.477 234.722 422.268 234.862C422.059 234.999 421.819 235.068 421.546 235.068C421.336 235.068 421.167 235.033 421.041 234.964C420.915 234.893 420.817 234.812 420.749 234.723C420.681 234.632 420.628 234.557 420.591 234.497H420.532V235H420.046ZM420.54 233.364C420.54 233.611 420.577 233.829 420.649 234.018C420.721 234.205 420.827 234.352 420.966 234.459C421.106 234.564 421.276 234.616 421.478 234.616C421.688 234.616 421.863 234.561 422.004 234.45C422.146 234.338 422.253 234.187 422.324 233.999C422.396 233.808 422.432 233.597 422.432 233.364C422.432 233.134 422.397 232.926 422.326 232.741C422.256 232.555 422.15 232.408 422.008 232.3C421.868 232.191 421.691 232.136 421.478 232.136C421.273 232.136 421.101 232.188 420.962 232.292C420.823 232.394 420.718 232.538 420.647 232.722C420.576 232.906 420.54 233.119 420.54 233.364ZM425.119 235.06C424.798 235.06 424.525 234.972 424.299 234.798C424.073 234.621 423.9 234.366 423.781 234.033C423.662 233.697 423.602 233.293 423.602 232.818C423.602 232.347 423.662 231.944 423.781 231.61C423.902 231.275 424.075 231.019 424.301 230.843C424.528 230.665 424.801 230.577 425.119 230.577C425.437 230.577 425.709 230.665 425.935 230.843C426.162 231.019 426.336 231.275 426.455 231.61C426.576 231.944 426.636 232.347 426.636 232.818C426.636 233.293 426.577 233.697 426.457 234.033C426.338 234.366 426.165 234.621 425.939 234.798C425.714 234.972 425.44 235.06 425.119 235.06ZM425.119 234.591C425.437 234.591 425.684 234.437 425.861 234.131C426.037 233.824 426.125 233.386 426.125 232.818C426.125 232.44 426.084 232.119 426.003 231.853C425.924 231.587 425.809 231.385 425.658 231.246C425.509 231.107 425.329 231.037 425.119 231.037C424.804 231.037 424.557 231.192 424.38 231.504C424.202 231.813 424.113 232.251 424.113 232.818C424.113 233.196 424.153 233.517 424.233 233.781C424.312 234.045 424.427 234.246 424.576 234.384C424.726 234.522 424.907 234.591 425.119 234.591ZM428.844 235.06C428.551 235.06 428.292 235.008 428.068 234.904C427.845 234.799 427.671 234.655 427.546 234.472C427.421 234.287 427.359 234.077 427.361 233.841C427.359 233.656 427.395 233.486 427.469 233.33C427.543 233.172 427.644 233.04 427.772 232.935C427.901 232.829 428.045 232.761 428.204 232.733V232.707C427.996 232.653 427.829 232.536 427.706 232.356C427.582 232.174 427.521 231.967 427.523 231.736C427.521 231.514 427.577 231.316 427.691 231.141C427.805 230.967 427.961 230.829 428.16 230.728C428.36 230.627 428.588 230.577 428.844 230.577C429.096 230.577 429.322 230.627 429.521 230.728C429.72 230.829 429.876 230.967 429.99 231.141C430.105 231.316 430.163 231.514 430.165 231.736C430.163 231.967 430.1 232.174 429.975 232.356C429.851 232.536 429.687 232.653 429.483 232.707V232.733C429.64 232.761 429.782 232.829 429.909 232.935C430.035 233.04 430.136 233.172 430.211 233.33C430.287 233.486 430.325 233.656 430.327 233.841C430.325 234.077 430.261 234.287 430.135 234.472C430.01 234.655 429.836 234.799 429.613 234.904C429.391 235.008 429.135 235.06 428.844 235.06ZM428.844 234.591C429.041 234.591 429.211 234.559 429.355 234.495C429.498 234.431 429.609 234.341 429.687 234.224C429.765 234.108 429.805 233.972 429.807 233.815C429.805 233.651 429.763 233.505 429.679 233.379C429.595 233.252 429.481 233.153 429.336 233.08C429.192 233.008 429.028 232.972 428.844 232.972C428.657 232.972 428.491 233.008 428.345 233.08C428.2 233.153 428.086 233.252 428.002 233.379C427.92 233.505 427.879 233.651 427.881 233.815C427.879 233.972 427.917 234.108 427.993 234.224C428.072 234.341 428.183 234.431 428.328 234.495C428.473 234.559 428.645 234.591 428.844 234.591ZM428.844 232.52C429 232.52 429.138 232.489 429.259 232.426C429.381 232.364 429.477 232.276 429.547 232.164C429.616 232.052 429.652 231.92 429.653 231.77C429.652 231.622 429.617 231.494 429.549 231.384C429.481 231.273 429.386 231.188 429.265 231.129C429.145 231.067 429.004 231.037 428.844 231.037C428.68 231.037 428.537 231.067 428.415 231.129C428.293 231.188 428.199 231.273 428.132 231.384C428.065 231.494 428.032 231.622 428.034 231.77C428.032 231.92 428.066 232.052 428.134 232.164C428.204 232.276 428.3 232.364 428.422 232.426C428.544 232.489 428.684 232.52 428.844 232.52ZM432.532 230.577C432.711 230.578 432.89 230.612 433.069 230.679C433.248 230.746 433.412 230.857 433.559 231.011C433.707 231.165 433.826 231.374 433.915 231.64C434.005 231.906 434.049 232.239 434.049 232.639C434.049 233.027 434.012 233.371 433.939 233.673C433.866 233.972 433.761 234.225 433.623 234.431C433.487 234.637 433.321 234.793 433.125 234.9C432.93 235.006 432.71 235.06 432.464 235.06C432.22 235.06 432.002 235.011 431.81 234.915C431.62 234.817 431.463 234.681 431.341 234.508C431.221 234.333 431.143 234.131 431.109 233.901H431.629C431.676 234.101 431.769 234.266 431.908 234.397C432.049 234.526 432.234 234.591 432.464 234.591C432.801 234.591 433.066 234.444 433.261 234.15C433.457 233.856 433.555 233.44 433.555 232.903H433.521C433.441 233.023 433.347 233.126 433.238 233.212C433.128 233.299 433.007 233.366 432.873 233.413C432.74 233.46 432.598 233.483 432.447 233.483C432.197 233.483 431.968 233.421 431.759 233.298C431.551 233.173 431.385 233.001 431.26 232.784C431.137 232.565 431.075 232.315 431.075 232.034C431.075 231.767 431.135 231.523 431.254 231.301C431.375 231.078 431.544 230.901 431.761 230.768C431.98 230.636 432.237 230.572 432.532 230.577ZM432.532 231.045C432.353 231.045 432.192 231.09 432.049 231.18C431.907 231.268 431.794 231.387 431.71 231.538C431.627 231.687 431.586 231.852 431.586 232.034C431.586 232.216 431.626 232.381 431.706 232.531C431.787 232.678 431.897 232.796 432.036 232.884C432.176 232.971 432.336 233.014 432.515 233.014C432.65 233.014 432.776 232.988 432.892 232.935C433.009 232.881 433.11 232.808 433.197 232.716C433.285 232.622 433.354 232.516 433.404 232.398C433.453 232.279 433.478 232.155 433.478 232.026C433.478 231.855 433.437 231.695 433.355 231.546C433.274 231.397 433.162 231.276 433.018 231.184C432.876 231.092 432.714 231.045 432.532 231.045ZM436.336 235.06C436.157 235.057 435.978 235.023 435.799 234.957C435.62 234.892 435.457 234.782 435.309 234.627C435.161 234.471 435.043 234.26 434.953 233.994C434.864 233.727 434.819 233.392 434.819 232.989C434.819 232.602 434.855 232.26 434.928 231.962C435 231.662 435.105 231.41 435.243 231.205C435.381 230.999 435.547 230.843 435.742 230.737C435.938 230.63 436.159 230.577 436.404 230.577C436.649 230.577 436.866 230.626 437.056 230.724C437.248 230.82 437.404 230.955 437.525 231.129C437.646 231.302 437.724 231.501 437.759 231.727H437.24C437.191 231.531 437.097 231.369 436.958 231.239C436.819 231.11 436.634 231.045 436.404 231.045C436.066 231.045 435.8 231.192 435.605 231.487C435.412 231.781 435.315 232.193 435.313 232.724H435.347C435.427 232.604 435.521 232.501 435.631 232.415C435.742 232.329 435.864 232.262 435.997 232.215C436.131 232.168 436.272 232.145 436.421 232.145C436.671 232.145 436.9 232.207 437.107 232.332C437.315 232.456 437.481 232.627 437.606 232.846C437.731 233.063 437.794 233.312 437.794 233.594C437.794 233.864 437.733 234.111 437.612 234.335C437.492 234.558 437.322 234.736 437.103 234.868C436.886 234.999 436.63 235.062 436.336 235.06ZM436.336 234.591C436.515 234.591 436.676 234.546 436.818 234.457C436.961 234.367 437.074 234.247 437.156 234.097C437.24 233.946 437.282 233.778 437.282 233.594C437.282 233.413 437.242 233.249 437.161 233.102C437.081 232.952 436.971 232.834 436.83 232.746C436.691 232.658 436.532 232.614 436.353 232.614C436.218 232.614 436.093 232.641 435.976 232.695C435.86 232.747 435.757 232.82 435.669 232.912C435.583 233.004 435.514 233.11 435.465 233.229C435.415 233.347 435.39 233.472 435.39 233.602C435.39 233.776 435.431 233.937 435.512 234.088C435.594 234.239 435.706 234.36 435.848 234.452C435.992 234.545 436.154 234.591 436.336 234.591ZM440.029 235.06C439.737 235.06 439.478 235.008 439.254 234.904C439.031 234.799 438.857 234.655 438.732 234.472C438.607 234.287 438.545 234.077 438.546 233.841C438.545 233.656 438.581 233.486 438.655 233.33C438.729 233.172 438.83 233.04 438.957 232.935C439.087 232.829 439.231 232.761 439.39 232.733V232.707C439.181 232.653 439.015 232.536 438.891 232.356C438.768 232.174 438.707 231.967 438.708 231.736C438.707 231.514 438.763 231.316 438.876 231.141C438.99 230.967 439.146 230.829 439.345 230.728C439.545 230.627 439.773 230.577 440.029 230.577C440.282 230.577 440.508 230.627 440.707 230.728C440.906 230.829 441.062 230.967 441.175 231.141C441.29 231.316 441.349 231.514 441.35 231.736C441.349 231.967 441.286 232.174 441.161 232.356C441.037 232.536 440.873 232.653 440.668 232.707V232.733C440.826 232.761 440.968 232.829 441.094 232.935C441.221 233.04 441.322 233.172 441.397 233.33C441.472 233.486 441.511 233.656 441.512 233.841C441.511 234.077 441.447 234.287 441.32 234.472C441.195 234.655 441.021 234.799 440.798 234.904C440.577 235.008 440.32 235.06 440.029 235.06ZM440.029 234.591C440.227 234.591 440.397 234.559 440.54 234.495C440.684 234.431 440.795 234.341 440.873 234.224C440.951 234.108 440.991 233.972 440.992 233.815C440.991 233.651 440.948 233.505 440.864 233.379C440.781 233.252 440.666 233.153 440.521 233.08C440.378 233.008 440.214 232.972 440.029 232.972C439.843 232.972 439.677 233.008 439.531 233.08C439.386 233.153 439.271 233.252 439.188 233.379C439.105 233.505 439.065 233.651 439.066 233.815C439.065 233.972 439.102 234.108 439.179 234.224C439.257 234.341 439.369 234.431 439.513 234.495C439.658 234.559 439.83 234.591 440.029 234.591ZM440.029 232.52C440.185 232.52 440.324 232.489 440.445 232.426C440.567 232.364 440.663 232.276 440.732 232.164C440.802 232.052 440.837 231.92 440.839 231.77C440.837 231.622 440.803 231.494 440.734 231.384C440.666 231.273 440.572 231.188 440.451 231.129C440.33 231.067 440.19 231.037 440.029 231.037C439.866 231.037 439.723 231.067 439.601 231.129C439.479 231.188 439.384 231.273 439.317 231.384C439.251 231.494 439.218 231.622 439.219 231.77C439.218 231.92 439.251 232.052 439.32 232.164C439.389 232.276 439.485 232.364 439.607 232.426C439.729 232.489 439.87 232.52 440.029 232.52ZM444.212 232.584V233.053H442.303V232.584H444.212ZM445.09 235L447.042 231.139V231.105H444.792V230.636H447.587V231.131L445.644 235H445.09ZM449.847 231.727V232.153H448.083V231.727H449.847ZM448.612 235V231.276C448.612 231.088 448.656 230.932 448.744 230.807C448.832 230.682 448.946 230.588 449.087 230.526C449.227 230.463 449.376 230.432 449.532 230.432C449.656 230.432 449.756 230.442 449.835 230.462C449.913 230.482 449.971 230.5 450.009 230.517L449.864 230.952C449.839 230.943 449.803 230.933 449.758 230.92C449.714 230.907 449.656 230.901 449.583 230.901C449.417 230.901 449.297 230.942 449.223 231.026C449.151 231.11 449.114 231.233 449.114 231.395V235H448.612ZM451.907 235.06C451.657 235.06 451.432 235.01 451.232 234.911C451.031 234.811 450.871 234.675 450.75 234.501C450.629 234.328 450.563 234.131 450.552 233.909H451.063C451.083 234.107 451.173 234.27 451.332 234.399C451.492 234.527 451.684 234.591 451.907 234.591C452.086 234.591 452.245 234.549 452.384 234.465C452.525 234.381 452.635 234.266 452.715 234.12C452.796 233.972 452.836 233.805 452.836 233.619C452.836 233.429 452.794 233.259 452.71 233.11C452.628 232.96 452.514 232.841 452.369 232.754C452.225 232.668 452.059 232.624 451.873 232.622C451.74 232.621 451.602 232.641 451.462 232.684C451.321 232.725 451.205 232.778 451.115 232.844L450.62 232.784L450.884 230.636H453.151V231.105H451.328L451.174 232.392H451.2C451.289 232.321 451.401 232.262 451.536 232.215C451.671 232.168 451.812 232.145 451.958 232.145C452.225 232.145 452.463 232.209 452.672 232.337C452.882 232.463 453.047 232.636 453.166 232.857C453.287 233.077 453.347 233.328 453.347 233.611C453.347 233.889 453.285 234.138 453.16 234.357C453.036 234.574 452.866 234.746 452.649 234.872C452.431 234.997 452.184 235.06 451.907 235.06ZM455.558 235.06C455.308 235.06 455.082 235.01 454.882 234.911C454.682 234.811 454.521 234.675 454.401 234.501C454.28 234.328 454.214 234.131 454.202 233.909H454.714C454.734 234.107 454.823 234.27 454.982 234.399C455.143 234.527 455.335 234.591 455.558 234.591C455.737 234.591 455.896 234.549 456.035 234.465C456.175 234.381 456.286 234.266 456.365 234.12C456.446 233.972 456.487 233.805 456.487 233.619C456.487 233.429 456.445 233.259 456.361 233.11C456.278 232.96 456.165 232.841 456.02 232.754C455.875 232.668 455.71 232.624 455.523 232.622C455.39 232.621 455.253 232.641 455.112 232.684C454.972 232.725 454.856 232.778 454.765 232.844L454.271 232.784L454.535 230.636H456.802V231.105H454.978L454.825 232.392H454.85C454.94 232.321 455.052 232.262 455.187 232.215C455.322 232.168 455.462 232.145 455.609 232.145C455.876 232.145 456.114 232.209 456.322 232.337C456.533 232.463 456.697 232.636 456.817 232.857C456.938 233.077 456.998 233.328 456.998 233.611C456.998 233.889 456.935 234.138 456.81 234.357C456.687 234.574 456.516 234.746 456.299 234.872C456.082 234.997 455.835 235.06 455.558 235.06ZM459.319 235.06C459.037 235.06 458.787 235.011 458.567 234.915C458.348 234.818 458.174 234.684 458.045 234.512C457.917 234.339 457.847 234.138 457.836 233.909H458.373C458.384 234.05 458.432 234.171 458.518 234.273C458.603 234.374 458.714 234.452 458.852 234.508C458.99 234.563 459.143 234.591 459.31 234.591C459.498 234.591 459.664 234.558 459.809 234.493C459.954 234.428 460.067 234.337 460.15 234.22C460.232 234.104 460.273 233.969 460.273 233.815C460.273 233.655 460.233 233.513 460.154 233.391C460.074 233.268 459.958 233.171 459.805 233.102C459.651 233.032 459.464 232.997 459.242 232.997H458.893V232.528H459.242C459.415 232.528 459.567 232.497 459.698 232.435C459.83 232.372 459.933 232.284 460.007 232.17C460.082 232.057 460.12 231.923 460.12 231.77C460.12 231.622 460.087 231.494 460.022 231.384C459.956 231.275 459.864 231.19 459.745 231.129C459.627 231.067 459.488 231.037 459.327 231.037C459.177 231.037 459.035 231.065 458.901 231.12C458.769 231.174 458.661 231.253 458.577 231.357C458.493 231.459 458.448 231.582 458.441 231.727H457.93C457.938 231.499 458.007 231.298 458.136 231.126C458.265 230.953 458.434 230.818 458.643 230.722C458.854 230.625 459.084 230.577 459.336 230.577C459.606 230.577 459.837 230.631 460.03 230.741C460.224 230.849 460.372 230.991 460.476 231.169C460.579 231.347 460.631 231.538 460.631 231.744C460.631 231.99 460.567 232.2 460.437 232.373C460.309 232.546 460.135 232.666 459.915 232.733V232.767C460.191 232.812 460.406 232.93 460.561 233.119C460.716 233.306 460.793 233.538 460.793 233.815C460.793 234.053 460.729 234.266 460.599 234.455C460.471 234.642 460.297 234.79 460.075 234.898C459.854 235.006 459.601 235.06 459.319 235.06ZM463.054 230.577C463.233 230.578 463.412 230.612 463.591 230.679C463.77 230.746 463.933 230.857 464.081 231.011C464.229 231.165 464.347 231.374 464.437 231.64C464.526 231.906 464.571 232.239 464.571 232.639C464.571 233.027 464.534 233.371 464.46 233.673C464.388 233.972 464.282 234.225 464.145 234.431C464.008 234.637 463.842 234.793 463.646 234.9C463.452 235.006 463.231 235.06 462.986 235.06C462.741 235.06 462.523 235.011 462.331 234.915C462.141 234.817 461.985 234.681 461.863 234.508C461.742 234.333 461.665 234.131 461.631 233.901H462.15C462.197 234.101 462.29 234.266 462.43 234.397C462.57 234.526 462.756 234.591 462.986 234.591C463.322 234.591 463.588 234.444 463.782 234.15C463.979 233.856 464.077 233.44 464.077 232.903H464.042C463.963 233.023 463.868 233.126 463.759 233.212C463.65 233.299 463.528 233.366 463.395 233.413C463.261 233.46 463.119 233.483 462.969 233.483C462.719 233.483 462.489 233.421 462.28 233.298C462.073 233.173 461.907 233.001 461.782 232.784C461.658 232.565 461.596 232.315 461.596 232.034C461.596 231.767 461.656 231.523 461.775 231.301C461.896 231.078 462.065 230.901 462.282 230.768C462.501 230.636 462.758 230.572 463.054 230.577ZM463.054 231.045C462.875 231.045 462.714 231.09 462.57 231.18C462.428 231.268 462.315 231.387 462.231 231.538C462.149 231.687 462.108 231.852 462.108 232.034C462.108 232.216 462.148 232.381 462.227 232.531C462.308 232.678 462.418 232.796 462.557 232.884C462.698 232.971 462.858 233.014 463.037 233.014C463.172 233.014 463.297 232.988 463.414 232.935C463.53 232.881 463.632 232.808 463.719 232.716C463.807 232.622 463.876 232.516 463.925 232.398C463.975 232.279 464 232.155 464 232.026C464 231.855 463.959 231.695 463.876 231.546C463.795 231.397 463.683 231.276 463.54 231.184C463.398 231.092 463.236 231.045 463.054 231.045ZM467.292 232.584V233.053H465.383V232.584H467.292ZM469.558 230.577C469.737 230.578 469.916 230.612 470.095 230.679C470.274 230.746 470.437 230.857 470.585 231.011C470.732 231.165 470.851 231.374 470.941 231.64C471.03 231.906 471.075 232.239 471.075 232.639C471.075 233.027 471.038 233.371 470.964 233.673C470.892 233.972 470.786 234.225 470.649 234.431C470.512 234.637 470.346 234.793 470.15 234.9C469.955 235.006 469.735 235.06 469.49 235.06C469.245 235.06 469.027 235.011 468.835 234.915C468.645 234.817 468.489 234.681 468.367 234.508C468.246 234.333 468.169 234.131 468.134 233.901H468.654C468.701 234.101 468.794 234.266 468.933 234.397C469.074 234.526 469.259 234.591 469.49 234.591C469.826 234.591 470.092 234.444 470.286 234.15C470.482 233.856 470.58 233.44 470.58 232.903H470.546C470.467 233.023 470.372 233.126 470.263 233.212C470.154 233.299 470.032 233.366 469.899 233.413C469.765 233.46 469.623 233.483 469.472 233.483C469.222 233.483 468.993 233.421 468.784 233.298C468.577 233.173 468.411 233.001 468.286 232.784C468.162 232.565 468.1 232.315 468.1 232.034C468.1 231.767 468.16 231.523 468.279 231.301C468.4 231.078 468.569 230.901 468.786 230.768C469.005 230.636 469.262 230.572 469.558 230.577ZM469.558 231.045C469.379 231.045 469.218 231.09 469.074 231.18C468.932 231.268 468.819 231.387 468.735 231.538C468.653 231.687 468.612 231.852 468.612 232.034C468.612 232.216 468.651 232.381 468.731 232.531C468.812 232.678 468.922 232.796 469.061 232.884C469.202 232.971 469.362 233.014 469.541 233.014C469.676 233.014 469.801 232.988 469.918 232.935C470.034 232.881 470.136 232.808 470.222 232.716C470.311 232.622 470.379 232.516 470.429 232.398C470.479 232.279 470.504 232.155 470.504 232.026C470.504 231.855 470.463 231.695 470.38 231.546C470.299 231.397 470.187 231.276 470.044 231.184C469.901 231.092 469.74 231.045 469.558 231.045ZM473.251 235.068C472.944 235.068 472.68 234.996 472.458 234.851C472.237 234.706 472.066 234.506 471.947 234.252C471.827 233.998 471.768 233.707 471.768 233.381C471.768 233.048 471.829 232.755 471.951 232.501C472.075 232.245 472.246 232.045 472.467 231.902C472.688 231.757 472.947 231.685 473.242 231.685C473.472 231.685 473.68 231.727 473.864 231.812C474.049 231.898 474.2 232.017 474.318 232.17C474.436 232.324 474.509 232.503 474.538 232.707H474.035C473.996 232.558 473.911 232.426 473.779 232.311C473.648 232.195 473.472 232.136 473.251 232.136C473.055 232.136 472.883 232.187 472.735 232.29C472.589 232.391 472.474 232.533 472.392 232.718C472.311 232.901 472.271 233.116 472.271 233.364C472.271 233.616 472.31 233.837 472.39 234.024C472.471 234.212 472.585 234.357 472.731 234.461C472.879 234.565 473.052 234.616 473.251 234.616C473.381 234.616 473.5 234.594 473.607 234.548C473.713 234.503 473.803 234.438 473.877 234.352C473.951 234.267 474.004 234.165 474.035 234.045H474.538C474.509 234.239 474.439 234.413 474.327 234.567C474.216 234.721 474.069 234.843 473.886 234.934C473.704 235.023 473.492 235.068 473.251 235.068ZM476.713 235.06C476.534 235.057 476.355 235.023 476.176 234.957C475.997 234.892 475.834 234.782 475.686 234.627C475.538 234.471 475.42 234.26 475.33 233.994C475.241 233.727 475.196 233.392 475.196 232.989C475.196 232.602 475.232 232.26 475.305 231.962C475.377 231.662 475.482 231.41 475.62 231.205C475.758 230.999 475.924 230.843 476.119 230.737C476.315 230.63 476.536 230.577 476.781 230.577C477.026 230.577 477.243 230.626 477.433 230.724C477.625 230.82 477.781 230.955 477.902 231.129C478.023 231.302 478.101 231.501 478.136 231.727H477.616C477.568 231.531 477.474 231.369 477.335 231.239C477.196 231.11 477.011 231.045 476.781 231.045C476.443 231.045 476.177 231.192 475.982 231.487C475.789 231.781 475.692 232.193 475.69 232.724H475.724C475.804 232.604 475.898 232.501 476.008 232.415C476.119 232.329 476.241 232.262 476.374 232.215C476.508 232.168 476.649 232.145 476.798 232.145C477.048 232.145 477.277 232.207 477.484 232.332C477.692 232.456 477.858 232.627 477.983 232.846C478.108 233.063 478.17 233.312 478.17 233.594C478.17 233.864 478.11 234.111 477.989 234.335C477.869 234.558 477.699 234.736 477.48 234.868C477.263 234.999 477.007 235.062 476.713 235.06ZM476.713 234.591C476.892 234.591 477.053 234.546 477.195 234.457C477.338 234.367 477.451 234.247 477.533 234.097C477.617 233.946 477.659 233.778 477.659 233.594C477.659 233.413 477.619 233.249 477.538 233.102C477.458 232.952 477.348 232.834 477.207 232.746C477.068 232.658 476.909 232.614 476.73 232.614C476.595 232.614 476.469 232.641 476.353 232.695C476.237 232.747 476.134 232.82 476.046 232.912C475.96 233.004 475.891 233.11 475.842 233.229C475.792 233.347 475.767 233.472 475.767 233.602C475.767 233.776 475.808 233.937 475.888 234.088C475.971 234.239 476.083 234.36 476.225 234.452C476.369 234.545 476.531 234.591 476.713 234.591ZM480.457 235.06C480.278 235.057 480.099 235.023 479.92 234.957C479.741 234.892 479.578 234.782 479.43 234.627C479.282 234.471 479.164 234.26 479.074 233.994C478.985 233.727 478.94 233.392 478.94 232.989C478.94 232.602 478.976 232.26 479.049 231.962C479.121 231.662 479.226 231.41 479.364 231.205C479.502 230.999 479.668 230.843 479.863 230.737C480.059 230.63 480.28 230.577 480.525 230.577C480.77 230.577 480.987 230.626 481.177 230.724C481.369 230.82 481.525 230.955 481.646 231.129C481.767 231.302 481.845 231.501 481.881 231.727H481.361C481.312 231.531 481.219 231.369 481.079 231.239C480.94 231.11 480.756 231.045 480.525 231.045C480.187 231.045 479.921 231.192 479.726 231.487C479.533 231.781 479.436 232.193 479.434 232.724H479.469C479.548 232.604 479.643 232.501 479.752 232.415C479.863 232.329 479.985 232.262 480.118 232.215C480.252 232.168 480.393 232.145 480.542 232.145C480.792 232.145 481.021 232.207 481.229 232.332C481.436 232.456 481.602 232.627 481.727 232.846C481.852 233.063 481.915 233.312 481.915 233.594C481.915 233.864 481.854 234.111 481.733 234.335C481.613 234.558 481.443 234.736 481.224 234.868C481.007 234.999 480.751 235.062 480.457 235.06ZM480.457 234.591C480.636 234.591 480.797 234.546 480.939 234.457C481.082 234.367 481.195 234.247 481.278 234.097C481.361 233.946 481.403 233.778 481.403 233.594C481.403 233.413 481.363 233.249 481.282 233.102C481.202 232.952 481.092 232.834 480.952 232.746C480.812 232.658 480.653 232.614 480.474 232.614C480.339 232.614 480.214 232.641 480.097 232.695C479.981 232.747 479.878 232.82 479.79 232.912C479.704 233.004 479.635 233.11 479.586 233.229C479.536 233.347 479.511 233.472 479.511 233.602C479.511 233.776 479.552 233.937 479.633 234.088C479.715 234.239 479.827 234.36 479.969 234.452C480.113 234.545 480.275 234.591 480.457 234.591ZM482.65 234.105V233.67L484.568 230.636H484.883V231.31H484.67L483.221 233.602V233.636H485.804V234.105H482.65ZM484.704 235V233.973V233.771V230.636H485.207V235H484.704ZM486.5 234.105V233.67L488.417 230.636H488.733V231.31H488.52L487.071 233.602V233.636H489.653V234.105H486.5ZM488.554 235V233.973V233.771V230.636H489.057V235H488.554Z" fill="black"/>
</svg>
