<svg width="35" height="46" viewBox="0 0 35 46" fill="none" xmlns="http://www.w3.org/2000/svg">
<path d="M12.5305 41.1021C19.3595 42.8382 26.9696 36.0873 29.5281 26.0235C32.0866 15.9597 28.6247 6.39392 21.7957 4.65778C14.9667 2.92164 7.35657 9.67255 4.79805 19.7364C2.23953 29.8002 5.70145 39.3659 12.5305 41.1021Z" fill="#B08968"/>
<path fill-rule="evenodd" clip-rule="evenodd" d="M12.5305 41.1021C12.5205 41.0995 12.5217 41.085 12.532 41.0842C18.5098 40.6404 24.5206 34.2524 26.7812 25.3604C29.0431 16.4633 26.8092 7.97567 21.7633 4.73491C21.7228 4.7089 21.7491 4.64594 21.7958 4.65781C28.6248 6.39394 32.0867 15.9597 29.5282 26.0235C26.9696 36.0873 19.3595 42.8382 12.5305 41.1021Z" fill="#7F5539"/>
<path d="M26.1305 25.1949C25.0248 29.5443 23.006 33.2623 20.5555 35.9367C18.0997 38.617 15.2509 40.209 12.4824 40.4145L12.5818 41.7538C15.791 41.5155 18.9365 39.6917 21.5457 36.844C24.1603 33.9904 26.2772 30.0684 27.4321 25.5258L26.1305 25.1949ZM21.4005 5.2999C23.7373 6.80072 25.4822 9.5599 26.3612 13.0888C27.2383 16.6099 27.2369 20.8431 26.1305 25.1949L27.4321 25.5258C28.5876 20.9805 28.6003 16.5213 27.6643 12.7642C26.7304 9.01478 24.8353 5.9098 22.1262 4.16989L21.4005 5.2999ZM21.6304 5.30858C24.765 6.10549 27.2017 8.71797 28.551 12.4463C29.8987 16.1704 30.128 20.939 28.8774 25.858L30.179 26.1889C31.487 21.0441 31.2646 15.998 29.8138 11.9892C28.3644 7.98469 25.6557 4.94625 21.9613 4.007L21.6304 5.30858ZM28.8774 25.858C27.6269 30.777 25.148 34.8572 22.1852 37.4855C19.2192 40.1167 15.8306 41.2482 12.696 40.4513L12.3651 41.7529C16.0596 42.6921 19.8906 41.3162 23.0764 38.4901C26.2656 35.661 28.871 31.3338 30.179 26.1889L28.8774 25.858ZM22.1262 4.16989C22.4196 4.35832 22.4661 4.7041 22.3659 4.94234C22.2645 5.18356 21.9768 5.39667 21.6304 5.30858L21.9613 4.007C21.5681 3.90705 21.2439 4.14571 21.1279 4.42193C21.013 4.6952 21.0665 5.08544 21.4005 5.2999L22.1262 4.16989ZM12.4824 40.4145C11.6878 40.4735 11.6418 41.569 12.3651 41.7529L12.696 40.4513C13.3994 40.6301 13.3557 41.6963 12.5818 41.7538L12.4824 40.4145Z" fill="#7F5539"/>
<path fill-rule="evenodd" clip-rule="evenodd" d="M13.0269 39.1494C13.0269 39.1494 10.9741 30.8725 13.2585 21.887C15.535 12.9321 21.2602 6.65291 21.2993 6.61012C21.2717 6.64038 18.4156 9.77736 17.279 14.2484C16.1368 18.7412 17.1632 22.8797 17.1632 22.8797C17.1632 22.8797 18.1896 27.0181 17.0474 31.5109C15.9052 36.0037 13.0269 39.1494 13.0269 39.1494Z" fill="#7F5539"/>
<path d="M13.027 39.1494L12.3752 39.3111C12.4349 39.5513 12.6217 39.7392 12.8616 39.8002C13.1014 39.8612 13.3553 39.7853 13.5224 39.6028L13.027 39.1494ZM21.2993 6.61012L21.7953 7.06275C22.0453 6.78888 22.026 6.36424 21.7521 6.1142C21.4782 5.8642 21.0536 5.88348 20.8035 6.15725L21.2993 6.61012ZM12.6077 21.7215C11.4425 26.3048 11.3854 30.6967 11.6163 33.9356C11.732 35.5569 11.9202 36.8943 12.0801 37.829C12.16 38.2964 12.233 38.6636 12.2863 38.9154C12.3131 39.0414 12.3348 39.1386 12.3501 39.2051C12.3578 39.2384 12.3639 39.264 12.3681 39.2817C12.3703 39.2906 12.372 39.2975 12.3731 39.3024C12.3738 39.3048 12.3742 39.3068 12.3746 39.3082C12.3747 39.309 12.3749 39.3096 12.375 39.3101C12.3751 39.3103 12.3753 39.311 12.3752 39.3111C12.3753 39.3113 12.3752 39.3111 13.027 39.1494C13.6788 38.9878 13.6788 38.9879 13.6788 38.988C13.6787 38.988 13.6789 38.9883 13.6788 38.988C13.6787 38.9875 13.6783 38.986 13.6779 38.9844C13.6772 38.9813 13.6759 38.9762 13.6743 38.9691C13.6708 38.955 13.6657 38.933 13.6589 38.9035C13.6453 38.8444 13.6252 38.755 13.6001 38.6371C13.5502 38.4012 13.4806 38.0514 13.4038 37.6025C13.2502 36.7045 13.068 35.4111 12.9559 33.84C12.7316 30.694 12.7901 26.4547 13.9093 22.0524L12.6077 21.7215ZM20.8035 6.15725C20.7425 6.22406 14.9259 12.6033 12.6077 21.7215L13.9093 22.0524C16.1444 13.2609 21.778 7.08157 21.7953 7.06275L20.8035 6.15725ZM17.9298 14.4139C18.4753 12.2684 19.4366 10.4329 20.2712 9.1252C21.1045 7.8193 21.7995 7.05814 21.7953 7.06275L20.8035 6.15725C20.754 6.21153 17.8064 9.44876 16.6282 14.083L17.9298 14.4139ZM17.1633 22.8797C17.8151 22.718 17.815 22.7178 17.8151 22.718C17.8148 22.7169 17.8142 22.7144 17.8134 22.7113C17.812 22.7051 17.8096 22.6951 17.8064 22.6813C17.8 22.6536 17.7904 22.6108 17.7783 22.5539C17.7542 22.4399 17.7202 22.2694 17.6826 22.0496C17.6074 21.6097 17.5178 20.9741 17.4626 20.2011C17.3521 18.6512 17.3817 16.5698 17.9298 14.4139L16.6282 14.083C16.0341 16.4198 16.0059 18.654 16.123 20.2966C16.1817 21.1198 16.2773 21.7996 16.3589 22.2761C16.3996 22.5145 16.4369 22.7023 16.4645 22.8323C16.4783 22.8972 16.4896 22.9478 16.4977 22.9829C16.5017 23.0005 16.505 23.0142 16.5073 23.024C16.5085 23.0289 16.5094 23.0328 16.5102 23.0357C16.5105 23.0371 16.5108 23.0383 16.511 23.0393C16.5111 23.0397 16.5113 23.0401 16.5113 23.0405C16.5113 23.0403 16.5114 23.0406 16.5113 23.0405C16.5113 23.0406 16.5115 23.0413 17.1633 22.8797ZM17.1633 22.8797C16.5115 23.0413 16.5113 23.0406 16.5113 23.0405C16.5113 23.0403 16.5114 23.0406 16.5113 23.0405C16.5114 23.0405 16.5115 23.0411 16.5116 23.0417C16.5119 23.0428 16.5124 23.0449 16.5131 23.048C16.5146 23.0542 16.517 23.0642 16.5202 23.078C16.5266 23.1057 16.5361 23.1485 16.5483 23.2055C16.5724 23.3194 16.6064 23.4899 16.6439 23.7097C16.7192 24.1496 16.8088 24.7852 16.8639 25.5583C16.9744 27.1081 16.9448 29.1895 16.3967 31.3455L17.6983 31.6764C18.2924 29.3395 18.3207 27.1054 18.2035 25.4628C18.1448 24.6395 18.0492 23.9597 17.9677 23.4833C17.9269 23.2449 17.8896 23.057 17.8621 22.9271C17.8483 22.8621 17.837 22.8116 17.8289 22.7765C17.8248 22.7589 17.8216 22.7452 17.8192 22.7353C17.8181 22.7305 17.8171 22.7266 17.8164 22.7237C17.8161 22.7222 17.8157 22.721 17.8156 22.7201C17.8154 22.7196 17.8153 22.7192 17.8153 22.7189C17.8152 22.7187 17.8151 22.7181 17.8151 22.718C17.815 22.7178 17.8151 22.718 17.1633 22.8797ZM16.3967 31.3455C15.8486 33.5014 14.8806 35.3442 14.0433 36.6531C13.6257 37.3059 13.2433 37.8216 12.9672 38.1721C12.8292 38.3473 12.7179 38.4809 12.6423 38.5695C12.6044 38.6137 12.5756 38.6467 12.5567 38.668C12.5473 38.6786 12.5404 38.6863 12.5362 38.691C12.5341 38.6934 12.5326 38.695 12.5319 38.6958C12.5315 38.6963 12.5313 38.6965 12.5312 38.6966C12.5312 38.6965 12.5312 38.6966 12.5312 38.6966C12.5313 38.6964 12.5316 38.6961 13.027 39.1494C13.5224 39.6028 13.5223 39.6029 13.5224 39.6028C13.5225 39.6026 13.5229 39.6022 13.523 39.6021C13.5232 39.6018 13.5235 39.6015 13.5239 39.6012C13.5245 39.6004 13.5253 39.5996 13.5263 39.5984C13.5283 39.5962 13.531 39.5932 13.5344 39.5895C13.5411 39.582 13.5505 39.5715 13.5625 39.558C13.5863 39.531 13.6204 39.492 13.6636 39.4415C13.7499 39.3405 13.8724 39.1933 14.022 39.0033C14.3212 38.6236 14.7299 38.0721 15.1746 37.3768C16.062 35.9896 17.1042 34.0132 17.6983 31.6764L16.3967 31.3455Z" fill="#7F5539"/>
<path d="M12.5305 41.1021C19.3595 42.8382 26.9696 36.0873 29.5281 26.0235C32.0866 15.9597 28.6247 6.39392 21.7957 4.65778C14.9667 2.92164 7.35657 9.67255 4.79805 19.7364C2.23953 29.8002 5.70145 39.3659 12.5305 41.1021Z" stroke="#7F5539" stroke-width="2.17531"/>
<path d="M17.163 22.8799C17.163 22.8799 16.1366 18.7415 17.2788 14.2487C18.421 9.75587 21.2993 6.61014 21.2993 6.61014" stroke="#7F5539" stroke-width="2.17531" stroke-linecap="round" stroke-linejoin="round"/>
<path d="M17.163 22.8799C17.163 22.8799 18.1894 27.0184 17.0472 31.5111C15.905 36.0039 13.0267 39.1497 13.0267 39.1497" stroke="#7F5539" stroke-width="2.17531" stroke-linecap="round" stroke-linejoin="round"/>
</svg>
