<svg width="23" height="29" viewBox="0 0 23 29" fill="none" xmlns="http://www.w3.org/2000/svg">
<path d="M21.3284 7.10946H17.0627V5.68757C17.0627 4.17913 16.4635 2.73248 15.3968 1.66585C14.3302 0.599224 12.8836 0 11.3751 0C9.8667 0 8.42004 0.599224 7.35342 1.66585C6.28679 2.73248 5.68757 4.17913 5.68757 5.68757V7.10946H1.42189C1.04478 7.10946 0.683119 7.25926 0.416463 7.52592C0.149806 7.79258 0 8.15424 0 8.53135V24.1722C0 25.3035 0.449418 26.3885 1.24939 27.1884C2.04936 27.9884 3.13435 28.4378 4.26567 28.4378H18.4846C19.6159 28.4378 20.7009 27.9884 21.5009 27.1884C22.3008 26.3885 22.7503 25.3035 22.7503 24.1722V8.53135C22.7503 8.15424 22.6005 7.79258 22.3338 7.52592C22.0671 7.25926 21.7055 7.10946 21.3284 7.10946ZM8.53135 5.68757C8.53135 4.93335 8.83096 4.21002 9.36427 3.67671C9.89759 3.14339 10.6209 2.84378 11.3751 2.84378C12.1293 2.84378 12.8527 3.14339 13.386 3.67671C13.9193 4.21002 14.2189 4.93335 14.2189 5.68757V7.10946H8.53135V5.68757ZM19.9065 24.1722C19.9065 24.5493 19.7567 24.9109 19.49 25.1776C19.2234 25.4442 18.8617 25.594 18.4846 25.594H4.26567C3.88857 25.594 3.5269 25.4442 3.26025 25.1776C2.99359 24.9109 2.84378 24.5493 2.84378 24.1722V9.95324H5.68757V11.3751C5.68757 11.7522 5.83737 12.1139 6.10403 12.3806C6.37068 12.6472 6.73235 12.797 7.10946 12.797C7.48657 12.797 7.84823 12.6472 8.11489 12.3806C8.38154 12.1139 8.53135 11.7522 8.53135 11.3751V9.95324H14.2189V11.3751C14.2189 11.7522 14.3687 12.1139 14.6354 12.3806C14.902 12.6472 15.2637 12.797 15.6408 12.797C16.0179 12.797 16.3796 12.6472 16.6462 12.3806C16.9129 12.1139 17.0627 11.7522 17.0627 11.3751V9.95324H19.9065V24.1722Z" fill="#7F5539"/>
</svg>
